<svg width="102" height="102" viewBox="0 0 102 102" fill="none" xmlns="http://www.w3.org/2000/svg">
<path d="M0 0H102L49.4852 53.0198L0 102V0Z" fill="#43A047" style="fill:#43A047;fill:color(display-p3 0.2627 0.6275 0.2784);fill-opacity:1;"/>
<path d="M19.111 72.57L5.76019 59.2192L12.3093 52.6701C14.6219 50.3575 17.6535 50.1243 19.5969 52.0676C20.9572 53.428 21.2099 55.0798 20.6657 56.9066C22.9394 56.1098 25.0771 56.4208 26.5346 57.8783C28.6723 60.016 28.4003 63.2808 25.9128 65.7683L19.111 72.57ZM13.6308 62.2702L17.1871 58.7139C18.3726 57.5285 18.528 55.9738 17.5563 55.0021C16.5652 54.011 15.0106 54.1665 13.8251 55.3519L10.2688 58.9082L13.6308 62.2702ZM19.422 68.0614L23.3281 64.1553C24.6496 62.8338 24.7856 61.1042 23.6779 59.9965C22.5702 58.8888 20.8406 59.0248 19.5191 60.3463L15.613 64.2525L19.422 68.0614ZM31.3413 38.069L23.7233 45.6869L26.9493 48.9129L33.8482 42.014L36.0636 44.2294L29.1647 51.1283L32.6433 54.6069L40.2613 46.989L42.4767 49.2044L32.4295 59.2515L19.0787 45.9007L29.1258 35.8535L31.3413 38.069ZM49.9531 42.1555C47.66 44.4486 44.9393 45.6146 42.0825 45.7118L41.7522 42.583C44.0842 42.4664 46.2025 41.7474 47.9515 39.9983C49.6033 38.3465 49.6422 36.6752 48.6899 35.723C47.5822 34.6153 46.2608 35.1983 43.6178 36.8307C40.2169 38.9489 37.4962 40.0761 34.9893 37.5692C32.6573 35.2371 32.9293 31.5448 35.7472 28.7269C37.8655 26.6086 40.1781 25.7341 42.6655 25.5398L43.132 28.6492C40.9554 28.8046 39.0509 29.582 37.7294 30.9035C36.3885 32.2444 36.2913 33.974 37.2242 34.9068C38.3124 35.995 39.6922 35.3926 42.2963 33.7602C45.6972 31.6031 48.4567 30.6314 50.8859 33.0606C53.2763 35.4509 53.1402 38.9684 49.9531 42.1555ZM60.5634 31.1177L49.428 19.9823L45.1526 24.2576L42.9372 22.0422L53.8977 11.0817L56.1131 13.2971L51.8377 17.5725L62.9731 28.7079L60.5634 31.1177ZM65.6694 17.2666L56.1275 8.85185L58.8871 6.09229L67.3018 15.6342L65.6694 17.2666ZM71.0913 21.0561C70.1974 21.9501 68.8371 21.9112 67.982 21.0561C67.1852 20.2593 67.1463 18.899 68.0403 18.0051C68.8565 17.1888 70.2363 17.2083 71.033 18.0051C71.8881 18.8601 71.9076 20.2399 71.0913 21.0561Z" fill="white" style="fill:white;fill-opacity:1;"/>
</svg>
