<svg width="205" height="205" viewBox="0 0 205 205" fill="none" xmlns="http://www.w3.org/2000/svg">
<path d="M51.6797 51.6836H153.76L102.72 102.724L51.6797 153.764V51.6836Z" fill="#43A047" style="fill:#43A047;fill:color(display-p3 0.2627 0.6275 0.2784);fill-opacity:1;"/>
<path d="M71.2517 126.443L57.9008 113.092L64.4499 106.543C66.7625 104.231 69.7941 103.997 71.7375 105.941C73.0978 107.301 73.3505 108.953 72.8063 110.78C75.0801 109.983 77.2178 110.294 78.6753 111.751C80.813 113.889 80.5409 117.154 78.0534 119.641L71.2517 126.443ZM65.7714 116.143L69.3277 112.587C70.5132 111.402 70.6687 109.847 69.697 108.875C68.7059 107.884 67.1512 108.04 65.9657 109.225L62.4094 112.781L65.7714 116.143ZM71.5626 121.934L75.4687 118.028C76.7902 116.707 76.9263 114.977 75.8185 113.87C74.7108 112.762 72.9812 112.898 71.6598 114.219L67.7536 118.126L71.5626 121.934ZM83.4819 91.942L75.8639 99.56L79.0899 102.786L85.9888 95.887L88.2042 98.1024L81.3053 105.001L84.7839 108.48L92.4019 100.862L94.6173 103.077L84.5702 113.125L71.2193 99.7737L81.2665 89.7266L83.4819 91.942ZM102.094 96.0285C99.8006 98.3217 97.0799 99.4877 94.2232 99.5849L93.8928 96.4561C96.2248 96.3395 98.3431 95.6204 100.092 93.8714C101.744 92.2195 101.783 90.5483 100.831 89.596C99.7229 88.4883 98.4014 89.0713 95.7584 90.7037C92.3575 92.822 89.6368 93.9491 87.1299 91.4422C84.7979 89.1102 85.07 85.4178 87.8878 82.5999C90.0061 80.4817 92.3187 79.6072 94.8062 79.4128L95.2726 82.5222C93.096 82.6777 91.1915 83.455 89.8701 84.7765C88.5291 86.1174 88.432 87.847 89.3648 88.7798C90.4531 89.8681 91.8328 89.2656 94.4369 87.6332C97.8378 85.4761 100.597 84.5044 103.027 86.9336C105.417 89.3239 105.281 92.8414 102.094 96.0285ZM112.704 84.9907L101.569 73.8553L97.2932 78.1307L95.0778 75.9153L106.038 64.9547L108.254 67.1702L103.978 71.4455L115.114 82.581L112.704 84.9907ZM117.81 71.1396L108.268 62.7249L111.028 59.9653L119.442 69.5072L117.81 71.1396ZM123.232 74.9292C122.338 75.8231 120.978 75.7842 120.123 74.9292C119.326 74.1324 119.287 72.772 120.181 71.8781C120.997 71.0619 122.377 71.0813 123.174 71.8781C124.029 72.7332 124.048 74.113 123.232 74.9292Z" fill="white" style="fill:white;fill-opacity:1;"/>
</svg>
