<svg width="48" height="49" viewBox="0 0 48 49" fill="none" xmlns="http://www.w3.org/2000/svg">
<g clip-path="url(#clip0_1048_88922)">
<path d="M0 24.7137C0 28.8715 1.05778 32.7822 2.91816 36.192L24 38.2789L45.0818 36.192C46.9422 32.7822 48 28.8715 48 24.7137C48 20.5559 46.9422 16.6452 45.0818 13.2354L24 11.1484L2.91816 13.2354C1.05778 16.6452 0 20.5559 0 24.7137H0Z" fill="#D80027" style="fill:#D80027;fill:color(display-p3 0.8471 0.0000 0.1529);fill-opacity:1;"/>
<path d="M2.92188 13.2346H45.0855C41.015 5.77436 33.1008 0.712891 24.0037 0.712891C14.9067 0.712891 6.99241 5.77436 2.92188 13.2346V13.2346Z" fill="#0052B4" style="fill:#0052B4;fill:color(display-p3 0.0000 0.3216 0.7059);fill-opacity:1;"/>
<path d="M24.0037 48.7131C33.1008 48.7131 41.015 43.6517 45.0856 36.1914H2.92188C6.99241 43.6517 14.9067 48.7131 24.0037 48.7131Z" fill="#0052B4" style="fill:#0052B4;fill:color(display-p3 0.0000 0.3216 0.7059);fill-opacity:1;"/>
<path d="M32.345 29.407V26.2766H30.2582V22.1027L28.1712 20.0157L26.0842 22.1027V17.9288L23.9973 15.8418L21.9103 17.9288V22.1027L19.8233 20.0157L17.7363 22.1027V26.2766H15.6495V29.407H13.5625V32.5375H34.432V29.407H32.345Z" fill="#F0F0F0" style="fill:#F0F0F0;fill:color(display-p3 0.9412 0.9412 0.9412);fill-opacity:1;"/>
</g>
<defs>
<clipPath id="clip0_1048_88922">
<rect width="48" height="48" fill="white" style="fill:white;fill-opacity:1;" transform="translate(0 0.712891)"/>
</clipPath>
</defs>
</svg>
