<svg width="48" height="49" viewBox="0 0 48 49" fill="none" xmlns="http://www.w3.org/2000/svg">
<g clip-path="url(#clip0_937_82124)" filter="url(#filter0_dd_937_82124)">
<path d="M24 43.2002C35.0457 43.2002 44 34.2459 44 23.2002C44 12.1545 35.0457 3.2002 24 3.2002C12.9543 3.2002 4 12.1545 4 23.2002C4 34.2459 12.9543 43.2002 24 43.2002Z" fill="#D80027" style="fill:#D80027;fill:color(display-p3 0.8471 0.0000 0.1529);fill-opacity:1;"/>
<path d="M14.9453 15.373L16.6719 20.6855H22.2578L17.7422 23.9746L19.4688 29.2871L14.9453 26.0059L10.4219 29.2871L12.1563 23.9746L7.63281 20.6855H13.2188L14.9453 15.373Z" fill="#FFDA44" style="fill:#FFDA44;fill:color(display-p3 1.0000 0.8549 0.2667);fill-opacity:1;"/>
<path d="M27.7109 34.1768L26.3906 32.5518L24.4375 33.3096L25.5703 31.5518L24.25 29.9189L26.2734 30.458L27.4141 28.7002L27.5234 30.7939L29.5547 31.333L27.5937 32.083L27.7109 34.1768Z" fill="#FFDA44" style="fill:#FFDA44;fill:color(display-p3 1.0000 0.8549 0.2667);fill-opacity:1;"/>
<path d="M30.3359 29.4111L30.9609 27.4111L29.25 26.2002L31.3437 26.1689L31.9609 24.1689L32.6406 26.1533L34.7344 26.1299L33.0547 27.3799L33.7266 29.3643L32.0156 28.1533L30.3359 29.4111Z" fill="#FFDA44" style="fill:#FFDA44;fill:color(display-p3 1.0000 0.8549 0.2667);fill-opacity:1;"/>
<path d="M33.8672 17.8799L32.9453 19.7627L34.4453 21.2236L32.375 20.9268L31.4531 22.8018L31.0938 20.7393L29.0156 20.4424L30.875 19.4658L30.5156 17.3955L32.0156 18.8564L33.8672 17.8799Z" fill="#FFDA44" style="fill:#FFDA44;fill:color(display-p3 1.0000 0.8549 0.2667);fill-opacity:1;"/>
<path d="M27.7656 12.1768L27.6094 14.2627L29.5547 15.0518L27.5156 15.5518L27.3672 17.6455L26.2656 15.8643L24.2266 16.3643L25.5781 14.7627L24.4688 12.9893L26.4141 13.7783L27.7656 12.1768Z" fill="#FFDA44" style="fill:#FFDA44;fill:color(display-p3 1.0000 0.8549 0.2667);fill-opacity:1;"/>
</g>
<defs>
<filter id="filter0_dd_937_82124" x="0.25" y="0.700195" width="47.5" height="47.5" filterUnits="userSpaceOnUse" color-interpolation-filters="sRGB">
<feFlood flood-opacity="0" result="BackgroundImageFix"/>
<feColorMatrix in="SourceAlpha" type="matrix" values="0 0 0 0 0 0 0 0 0 0 0 0 0 0 0 0 0 0 127 0" result="hardAlpha"/>
<feOffset dy="1.25"/>
<feGaussianBlur stdDeviation="1.25"/>
<feColorMatrix type="matrix" values="0 0 0 0 0 0 0 0 0 0 0 0 0 0 0 0 0 0 0.06 0"/>
<feBlend mode="normal" in2="BackgroundImageFix" result="effect1_dropShadow_937_82124"/>
<feColorMatrix in="SourceAlpha" type="matrix" values="0 0 0 0 0 0 0 0 0 0 0 0 0 0 0 0 0 0 127 0" result="hardAlpha"/>
<feOffset dy="1.25"/>
<feGaussianBlur stdDeviation="1.875"/>
<feColorMatrix type="matrix" values="0 0 0 0 0 0 0 0 0 0 0 0 0 0 0 0 0 0 0.1 0"/>
<feBlend mode="normal" in2="effect1_dropShadow_937_82124" result="effect2_dropShadow_937_82124"/>
<feBlend mode="normal" in="SourceGraphic" in2="effect2_dropShadow_937_82124" result="shape"/>
</filter>
<clipPath id="clip0_937_82124">
<rect width="40" height="40" fill="white" style="fill:white;fill-opacity:1;" transform="translate(4 3.2002)"/>
</clipPath>
</defs>
</svg>
