<svg width="28" height="28" viewBox="0 0 28 28" fill="none" xmlns="http://www.w3.org/2000/svg">
<g clip-path="url(#clip0_937_82347)" filter="url(#filter0_dd_937_82347)">
<path d="M14 22.5C19.5228 22.5 24 18.0228 24 12.5C24 6.97715 19.5228 2.5 14 2.5C8.47715 2.5 4 6.97715 4 12.5C4 18.0228 8.47715 22.5 14 22.5Z" fill="#F0F0F0" style="fill:#F0F0F0;fill:color(display-p3 0.9412 0.9412 0.9412);fill-opacity:1;"/>
<path d="M6.06645 6.41211C5.28094 7.4341 4.68863 8.61203 4.34375 9.89168H9.54602L6.06645 6.41211Z" fill="#0052B4" style="fill:#0052B4;fill:color(display-p3 0.0000 0.3216 0.7059);fill-opacity:1;"/>
<path d="M23.6553 9.89164C23.3104 8.61203 22.7181 7.4341 21.9326 6.41211L18.4531 9.89164H23.6553Z" fill="#0052B4" style="fill:#0052B4;fill:color(display-p3 0.0000 0.3216 0.7059);fill-opacity:1;"/>
<path d="M4.34375 15.1094C4.68867 16.389 5.28098 17.5669 6.06645 18.5889L9.5459 15.1094H4.34375Z" fill="#0052B4" style="fill:#0052B4;fill:color(display-p3 0.0000 0.3216 0.7059);fill-opacity:1;"/>
<path d="M20.0889 4.56746C19.0669 3.78195 17.889 3.18965 16.6094 2.84473V8.04695L20.0889 4.56746Z" fill="#0052B4" style="fill:#0052B4;fill:color(display-p3 0.0000 0.3216 0.7059);fill-opacity:1;"/>
<path d="M7.91406 20.4326C8.93605 21.2181 10.114 21.8104 11.3936 22.1553V16.9531L7.91406 20.4326Z" fill="#0052B4" style="fill:#0052B4;fill:color(display-p3 0.0000 0.3216 0.7059);fill-opacity:1;"/>
<path d="M11.3936 2.84473C10.1139 3.18965 8.93602 3.78195 7.91406 4.56742L11.3936 8.04691V2.84473Z" fill="#0052B4" style="fill:#0052B4;fill:color(display-p3 0.0000 0.3216 0.7059);fill-opacity:1;"/>
<path d="M16.6094 22.1553C17.889 21.8104 19.0669 21.2181 20.0889 20.4326L16.6094 16.9531V22.1553Z" fill="#0052B4" style="fill:#0052B4;fill:color(display-p3 0.0000 0.3216 0.7059);fill-opacity:1;"/>
<path d="M18.4531 15.1094L21.9326 18.5889C22.7181 17.567 23.3104 16.389 23.6553 15.1094H18.4531Z" fill="#0052B4" style="fill:#0052B4;fill:color(display-p3 0.0000 0.3216 0.7059);fill-opacity:1;"/>
<path d="M23.9154 11.1957H15.3044H15.3044V2.58465C14.8774 2.52906 14.4421 2.5 14 2.5C13.5579 2.5 13.1226 2.52906 12.6957 2.58465V11.1956V11.1956H4.08465C4.02906 11.6226 4 12.0579 4 12.5C4 12.9421 4.02906 13.3774 4.08465 13.8043H12.6956H12.6956V22.4154C13.1226 22.4709 13.5579 22.5 14 22.5C14.4421 22.5 14.8774 22.471 15.3043 22.4154V13.8044V13.8044H23.9154C23.9709 13.3774 24 12.9421 24 12.5C24 12.0579 23.9709 11.6226 23.9154 11.1957V11.1957Z" fill="#D80027" style="fill:#D80027;fill:color(display-p3 0.8471 0.0000 0.1529);fill-opacity:1;"/>
<path d="M16.6094 15.1084L21.0717 19.5708C21.277 19.3656 21.4727 19.1511 21.6595 18.9288L17.8391 15.1084H16.6094V15.1084Z" fill="#D80027" style="fill:#D80027;fill:color(display-p3 0.8471 0.0000 0.1529);fill-opacity:1;"/>
<path d="M11.3921 15.1084H11.392L6.92969 19.5707C7.13484 19.7759 7.34934 19.9717 7.57168 20.1585L11.3921 16.338V15.1084Z" fill="#D80027" style="fill:#D80027;fill:color(display-p3 0.8471 0.0000 0.1529);fill-opacity:1;"/>
<path d="M11.3939 9.89117V9.89109L6.93156 5.42871C6.72633 5.63387 6.53055 5.84836 6.34375 6.0707L10.1642 9.89113H11.3939V9.89117Z" fill="#D80027" style="fill:#D80027;fill:color(display-p3 0.8471 0.0000 0.1529);fill-opacity:1;"/>
<path d="M16.6094 9.89199L21.0718 5.42957C20.8666 5.22434 20.6521 5.02855 20.4298 4.8418L16.6094 8.66223V9.89199Z" fill="#D80027" style="fill:#D80027;fill:color(display-p3 0.8471 0.0000 0.1529);fill-opacity:1;"/>
</g>
<defs>
<filter id="filter0_dd_937_82347" x="0.25" y="0" width="27.5" height="27.5" filterUnits="userSpaceOnUse" color-interpolation-filters="sRGB">
<feFlood flood-opacity="0" result="BackgroundImageFix"/>
<feColorMatrix in="SourceAlpha" type="matrix" values="0 0 0 0 0 0 0 0 0 0 0 0 0 0 0 0 0 0 127 0" result="hardAlpha"/>
<feOffset dy="1.25"/>
<feGaussianBlur stdDeviation="1.25"/>
<feColorMatrix type="matrix" values="0 0 0 0 0 0 0 0 0 0 0 0 0 0 0 0 0 0 0.06 0"/>
<feBlend mode="normal" in2="BackgroundImageFix" result="effect1_dropShadow_937_82347"/>
<feColorMatrix in="SourceAlpha" type="matrix" values="0 0 0 0 0 0 0 0 0 0 0 0 0 0 0 0 0 0 127 0" result="hardAlpha"/>
<feOffset dy="1.25"/>
<feGaussianBlur stdDeviation="1.875"/>
<feColorMatrix type="matrix" values="0 0 0 0 0 0 0 0 0 0 0 0 0 0 0 0 0 0 0.1 0"/>
<feBlend mode="normal" in2="effect1_dropShadow_937_82347" result="effect2_dropShadow_937_82347"/>
<feBlend mode="normal" in="SourceGraphic" in2="effect2_dropShadow_937_82347" result="shape"/>
</filter>
<clipPath id="clip0_937_82347">
<rect width="20" height="20" fill="white" style="fill:white;fill-opacity:1;" transform="translate(4 2.5)"/>
</clipPath>
</defs>
</svg>
