<svg width="48" height="49" viewBox="0 0 48 49" fill="none" xmlns="http://www.w3.org/2000/svg">
<g clip-path="url(#clip0_1048_88934)">
<path d="M46.5072 33.0599C47.472 30.46 48 27.6478 48 24.7121C48 21.7764 47.472 18.9642 46.5072 16.3643L24 14.2773L1.49278 16.3643C0.528094 18.9642 0 21.7764 0 24.7121C0 27.6478 0.528094 30.46 1.49278 33.0599L24 35.1468L46.5072 33.0599Z" fill="#6DA544" style="fill:#6DA544;fill:color(display-p3 0.4275 0.6471 0.2667);fill-opacity:1;"/>
<path d="M46.5066 16.3651C43.1156 7.22589 34.3186 0.712891 23.9994 0.712891C13.6803 0.712891 4.88322 7.22589 1.49219 16.3651H46.5066Z" fill="#FFDA44" style="fill:#FFDA44;fill:color(display-p3 1.0000 0.8549 0.2667);fill-opacity:1;"/>
<path d="M23.9994 48.7147C34.3186 48.7147 43.1156 42.2017 46.5066 33.0625H1.49219C4.88322 42.2017 13.6803 48.7147 23.9994 48.7147Z" fill="#D80027" style="fill:#D80027;fill:color(display-p3 0.8471 0.0000 0.1529);fill-opacity:1;"/>
<path d="M40.4545 21.0177H27.882L23.9968 9.06055L20.1116 21.0177H7.53906L17.7105 28.4076L13.8253 40.365L23.9968 33.0605L34.1683 40.3649L30.2832 28.4075L40.4545 21.0177Z" fill="#F0F0F0" style="fill:#F0F0F0;fill:color(display-p3 0.9412 0.9412 0.9412);fill-opacity:1;"/>
</g>
<defs>
<clipPath id="clip0_1048_88934">
<rect width="48" height="48" fill="white" style="fill:white;fill-opacity:1;" transform="translate(0 0.712891)"/>
</clipPath>
</defs>
</svg>
