<svg width="56" height="56" viewBox="0 0 56 56" fill="none" xmlns="http://www.w3.org/2000/svg">
<g clip-path="url(#clip0_1048_88847)" filter="url(#filter0_dd_1048_88847)">
<path d="M28 50.5879C41.2548 50.5879 52 39.8427 52 26.5879C52 13.3331 41.2548 2.58789 28 2.58789C14.7452 2.58789 4 13.3331 4 26.5879C4 39.8427 14.7452 50.5879 28 50.5879Z" fill="#F0F0F0" style="fill:#F0F0F0;fill:color(display-p3 0.9412 0.9412 0.9412);fill-opacity:1;"/>
<path d="M28.0019 2.58789V26.5879L11.0312 43.5585C15.3744 47.9016 21.3744 50.5879 28.0019 50.5879C41.2566 50.5879 52.0019 39.8426 52.0019 26.5879C52.0019 13.3331 28.0019 2.58789 28.0019 2.58789Z" fill="#D80027" style="fill:#D80027;fill:color(display-p3 0.8471 0.0000 0.1529);fill-opacity:1;"/>
<path d="M28.0019 2.58789C21.3744 2.58789 15.3744 5.2742 11.0312 9.61727C16.9197 15.5057 19.01 17.5961 28.0019 26.5879H52.0019C52.0019 13.3331 41.2566 2.58789 28.0019 2.58789Z" fill="#0052B4" style="fill:#0052B4;fill:color(display-p3 0.0000 0.3216 0.7059);fill-opacity:1;"/>
<path d="M20.4325 26.5894L17.5015 25.2107L19.0623 22.3721L15.8795 22.981L15.4762 19.7656L13.2592 22.1304L11.0423 19.7656L10.6389 22.981L7.45619 22.372L9.01703 25.2107L6.08594 26.5894L9.01703 27.9681L7.45619 30.8067L10.6392 30.1979L11.0422 33.4132L13.2592 31.0484L15.4762 33.4132L15.8795 30.1979L19.0622 30.8068L17.5014 27.9682L20.4325 26.5894Z" fill="#FFDA44" style="fill:#FFDA44;fill:color(display-p3 1.0000 0.8549 0.2667);fill-opacity:1;"/>
<path d="M10.3997 11.9805L11.3751 13.3439L12.973 12.8377L11.9776 14.1866L12.953 15.55L11.3624 15.0202L10.3671 16.369L10.3795 14.6927L8.78906 14.1629L10.3873 13.6567L10.3997 11.9805Z" fill="#FFDA44" style="fill:#FFDA44;fill:color(display-p3 1.0000 0.8549 0.2667);fill-opacity:1;"/>
<path d="M10.3997 36.8086L11.3751 38.172L12.973 37.6657L11.9776 39.0147L12.953 40.3781L11.3624 39.8483L10.3671 41.1971L10.3795 39.5209L8.78906 38.991L10.3873 38.4848L10.3997 36.8086Z" fill="#FFDA44" style="fill:#FFDA44;fill:color(display-p3 1.0000 0.8549 0.2667);fill-opacity:1;"/>
<path d="M24.3155 24.3945L23.3403 25.7579L21.7422 25.2516L22.7376 26.6006L21.7623 27.9641L23.3528 27.4342L24.3483 28.783L24.3357 27.1068L25.9262 26.5769L24.328 26.0708L24.3155 24.3945Z" fill="#FFDA44" style="fill:#FFDA44;fill:color(display-p3 1.0000 0.8549 0.2667);fill-opacity:1;"/>
</g>
<defs>
<filter id="filter0_dd_1048_88847" x="0.25" y="0.0878906" width="55.5" height="55.5" filterUnits="userSpaceOnUse" color-interpolation-filters="sRGB">
<feFlood flood-opacity="0" result="BackgroundImageFix"/>
<feColorMatrix in="SourceAlpha" type="matrix" values="0 0 0 0 0 0 0 0 0 0 0 0 0 0 0 0 0 0 127 0" result="hardAlpha"/>
<feOffset dy="1.25"/>
<feGaussianBlur stdDeviation="1.25"/>
<feColorMatrix type="matrix" values="0 0 0 0 0 0 0 0 0 0 0 0 0 0 0 0 0 0 0.06 0"/>
<feBlend mode="normal" in2="BackgroundImageFix" result="effect1_dropShadow_1048_88847"/>
<feColorMatrix in="SourceAlpha" type="matrix" values="0 0 0 0 0 0 0 0 0 0 0 0 0 0 0 0 0 0 127 0" result="hardAlpha"/>
<feOffset dy="1.25"/>
<feGaussianBlur stdDeviation="1.875"/>
<feColorMatrix type="matrix" values="0 0 0 0 0 0 0 0 0 0 0 0 0 0 0 0 0 0 0.1 0"/>
<feBlend mode="normal" in2="effect1_dropShadow_1048_88847" result="effect2_dropShadow_1048_88847"/>
<feBlend mode="normal" in="SourceGraphic" in2="effect2_dropShadow_1048_88847" result="shape"/>
</filter>
<clipPath id="clip0_1048_88847">
<rect width="48" height="48" fill="white" style="fill:white;fill-opacity:1;" transform="translate(4 2.58789)"/>
</clipPath>
</defs>
</svg>
