<svg width="72" height="72" viewBox="0 0 72 72" fill="none" xmlns="http://www.w3.org/2000/svg">
<g clip-path="url(#clip0_1164_123258)" filter="url(#filter0_dd_1164_123258)">
<path d="M36 64.2031C52.5685 64.2031 66 50.7717 66 34.2031C66 17.6346 52.5685 4.20312 36 4.20312C19.4315 4.20312 6 17.6346 6 34.2031C6 50.7717 19.4315 64.2031 36 64.2031Z" fill="#D80027" style="fill:#D80027;fill:color(display-p3 0.8471 0.0000 0.1529);fill-opacity:1;"/>
<path d="M22.4141 22.4629L25.0039 30.4316H33.3828L26.6094 35.3652L29.1992 43.334L22.4141 38.4121L15.6289 43.334L18.2305 35.3652L11.4453 30.4316H19.8242L22.4141 22.4629Z" fill="#FFDA44" style="fill:#FFDA44;fill:color(display-p3 1.0000 0.8549 0.2667);fill-opacity:1;"/>
<path d="M41.5664 50.6699L39.5859 48.2324L36.6563 49.3691L38.3555 46.7324L36.375 44.2832L39.4102 45.0918L41.1211 42.4551L41.2852 45.5957L44.332 46.4043L41.3906 47.5293L41.5664 50.6699Z" fill="#FFDA44" style="fill:#FFDA44;fill:color(display-p3 1.0000 0.8549 0.2667);fill-opacity:1;"/>
<path d="M45.5039 43.5215L46.4414 40.5215L43.875 38.7051L47.0156 38.6582L47.9414 35.6582L48.9609 38.6348L52.1016 38.5996L49.582 40.4746L50.5898 43.4512L48.0234 41.6348L45.5039 43.5215Z" fill="#FFDA44" style="fill:#FFDA44;fill:color(display-p3 1.0000 0.8549 0.2667);fill-opacity:1;"/>
<path d="M50.8008 26.2266L49.418 29.0508L51.668 31.2422L48.5625 30.7969L47.1797 33.6094L46.6406 30.5156L43.5234 30.0703L46.3125 28.6055L45.7734 25.5L48.0234 27.6914L50.8008 26.2266Z" fill="#FFDA44" style="fill:#FFDA44;fill:color(display-p3 1.0000 0.8549 0.2667);fill-opacity:1;"/>
<path d="M41.6445 17.6699L41.4102 20.7988L44.3281 21.9824L41.2695 22.7324L41.0469 25.873L39.3945 23.2012L36.3359 23.9512L38.3633 21.5488L36.6992 18.8887L39.6172 20.0723L41.6445 17.6699Z" fill="#FFDA44" style="fill:#FFDA44;fill:color(display-p3 1.0000 0.8549 0.2667);fill-opacity:1;"/>
</g>
<defs>
<filter id="filter0_dd_1164_123258" x="0.375" y="0.453125" width="71.25" height="71.25" filterUnits="userSpaceOnUse" color-interpolation-filters="sRGB">
<feFlood flood-opacity="0" result="BackgroundImageFix"/>
<feColorMatrix in="SourceAlpha" type="matrix" values="0 0 0 0 0 0 0 0 0 0 0 0 0 0 0 0 0 0 127 0" result="hardAlpha"/>
<feOffset dy="1.875"/>
<feGaussianBlur stdDeviation="1.875"/>
<feColorMatrix type="matrix" values="0 0 0 0 0 0 0 0 0 0 0 0 0 0 0 0 0 0 0.06 0"/>
<feBlend mode="normal" in2="BackgroundImageFix" result="effect1_dropShadow_1164_123258"/>
<feColorMatrix in="SourceAlpha" type="matrix" values="0 0 0 0 0 0 0 0 0 0 0 0 0 0 0 0 0 0 127 0" result="hardAlpha"/>
<feOffset dy="1.875"/>
<feGaussianBlur stdDeviation="2.8125"/>
<feColorMatrix type="matrix" values="0 0 0 0 0 0 0 0 0 0 0 0 0 0 0 0 0 0 0.1 0"/>
<feBlend mode="normal" in2="effect1_dropShadow_1164_123258" result="effect2_dropShadow_1164_123258"/>
<feBlend mode="normal" in="SourceGraphic" in2="effect2_dropShadow_1164_123258" result="shape"/>
</filter>
<clipPath id="clip0_1164_123258">
<rect width="60" height="60" fill="white" style="fill:white;fill-opacity:1;" transform="translate(6 4.20312)"/>
</clipPath>
</defs>
</svg>
