<svg width="72" height="72" viewBox="0 0 72 72" fill="none" xmlns="http://www.w3.org/2000/svg">
<g clip-path="url(#clip0_947_83335)" filter="url(#filter0_dd_947_83335)">
<path d="M36 63.752C52.5685 63.752 66 50.3205 66 33.752C66 17.1834 52.5685 3.75195 36 3.75195C19.4315 3.75195 6 17.1834 6 33.752C6 50.3205 19.4315 63.752 36 63.752Z" fill="#F0F0F0" style="fill:#F0F0F0;fill:color(display-p3 0.9412 0.9412 0.9412);fill-opacity:1;"/>
<path d="M34.6875 33.7539H65.9918C65.9918 31.0461 65.6309 28.423 64.9583 25.9277H34.6875V33.7539Z" fill="#D80027" style="fill:#D80027;fill:color(display-p3 0.8471 0.0000 0.1529);fill-opacity:1;"/>
<path d="M34.6875 18.1015H61.5886C59.7521 15.1048 57.4041 12.456 54.6663 10.2754H34.6875V18.1015Z" fill="#D80027" style="fill:#D80027;fill:color(display-p3 0.8471 0.0000 0.1529);fill-opacity:1;"/>
<path d="M36.0027 63.7522C43.0631 63.7522 49.5526 61.3119 54.6772 57.2305H17.3281C22.4527 61.3119 28.9422 63.7522 36.0027 63.7522Z" fill="#D80027" style="fill:#D80027;fill:color(display-p3 0.8471 0.0000 0.1529);fill-opacity:1;"/>
<path d="M10.401 49.4043H61.5946C63.0689 46.9985 64.2123 44.3688 64.9643 41.5781H7.03125C7.78324 44.3688 8.92664 46.9985 10.401 49.4043V49.4043Z" fill="#D80027" style="fill:#D80027;fill:color(display-p3 0.8471 0.0000 0.1529);fill-opacity:1;"/>
<path d="M19.8966 8.43688H22.6304L20.0875 10.2843L21.0588 13.2737L18.516 11.4262L15.9731 13.2737L16.8122 10.6912C14.5732 12.5563 12.6108 14.7413 10.9936 17.176H11.8696L10.2509 18.352C9.99867 18.7727 9.7568 19.2001 9.525 19.6338L10.298 22.0128L8.85586 20.965C8.49738 21.7245 8.16949 22.5011 7.87477 23.2939L8.72637 25.9152H11.8696L9.3266 27.7626L10.298 30.752L7.75512 28.9045L6.23191 30.0112C6.07945 31.2368 6 32.485 6 33.752H36C36 17.1835 36 15.2302 36 3.75195C30.0736 3.75195 24.549 5.47109 19.8966 8.43688V8.43688ZM21.0588 30.752L18.516 28.9045L15.9731 30.752L16.9445 27.7626L14.4015 25.9152H17.5447L18.516 22.9258L19.4872 25.9152H22.6304L20.0875 27.7626L21.0588 30.752ZM20.0875 19.0235L21.0588 22.0128L18.516 20.1654L15.9731 22.0128L16.9445 19.0235L14.4015 17.176H17.5447L18.516 14.1867L19.4872 17.176H22.6304L20.0875 19.0235ZM31.8197 30.752L29.2768 28.9045L26.734 30.752L27.7054 27.7626L25.1624 25.9152H28.3056L29.2768 22.9258L30.2481 25.9152H33.3913L30.8483 27.7626L31.8197 30.752ZM30.8483 19.0235L31.8197 22.0128L29.2768 20.1654L26.734 22.0128L27.7054 19.0235L25.1624 17.176H28.3056L29.2768 14.1867L30.2481 17.176H33.3913L30.8483 19.0235ZM30.8483 10.2843L31.8197 13.2737L29.2768 11.4262L26.734 13.2737L27.7054 10.2843L25.1624 8.43688H28.3056L29.2768 5.44754L30.2481 8.43688H33.3913L30.8483 10.2843Z" fill="#0052B4" style="fill:#0052B4;fill:color(display-p3 0.0000 0.3216 0.7059);fill-opacity:1;"/>
</g>
<defs>
<filter id="filter0_dd_947_83335" x="0.375" y="0.00195312" width="71.25" height="71.25" filterUnits="userSpaceOnUse" color-interpolation-filters="sRGB">
<feFlood flood-opacity="0" result="BackgroundImageFix"/>
<feColorMatrix in="SourceAlpha" type="matrix" values="0 0 0 0 0 0 0 0 0 0 0 0 0 0 0 0 0 0 127 0" result="hardAlpha"/>
<feOffset dy="1.875"/>
<feGaussianBlur stdDeviation="1.875"/>
<feColorMatrix type="matrix" values="0 0 0 0 0 0 0 0 0 0 0 0 0 0 0 0 0 0 0.06 0"/>
<feBlend mode="normal" in2="BackgroundImageFix" result="effect1_dropShadow_947_83335"/>
<feColorMatrix in="SourceAlpha" type="matrix" values="0 0 0 0 0 0 0 0 0 0 0 0 0 0 0 0 0 0 127 0" result="hardAlpha"/>
<feOffset dy="1.875"/>
<feGaussianBlur stdDeviation="2.8125"/>
<feColorMatrix type="matrix" values="0 0 0 0 0 0 0 0 0 0 0 0 0 0 0 0 0 0 0.1 0"/>
<feBlend mode="normal" in2="effect1_dropShadow_947_83335" result="effect2_dropShadow_947_83335"/>
<feBlend mode="normal" in="SourceGraphic" in2="effect2_dropShadow_947_83335" result="shape"/>
</filter>
<clipPath id="clip0_947_83335">
<rect width="60" height="60" fill="white" style="fill:white;fill-opacity:1;" transform="translate(6 3.75195)"/>
</clipPath>
</defs>
</svg>
