<svg width="84" height="84" viewBox="0 0 84 84" fill="none" xmlns="http://www.w3.org/2000/svg">
<g clip-path="url(#clip0_982_84190)" filter="url(#filter0_dd_982_84190)">
<path d="M78 40.0078C78 59.8899 61.8821 76.0078 42 76.0078C22.1179 76.0078 6 59.8899 6 40.0078C6 40.0162 42 4.01189 42 4.00781C61.8821 4.00781 78 20.1257 78 40.0078Z" fill="#0052B4" style="fill:#0052B4;fill:color(display-p3 0.0000 0.3216 0.7059);fill-opacity:1;"/>
<path d="M41.9062 40.0065H42.0026C42.0026 39.9739 42.0026 39.9426 42.0026 39.9102C41.9705 39.9424 41.9385 39.9744 41.9062 40.0065Z" fill="#F0F0F0" style="fill:#F0F0F0;fill:color(display-p3 0.9412 0.9412 0.9412);fill-opacity:1;"/>
<path d="M42 22.7904C42 16.4559 42 12.3051 42 4.00781H41.994C22.1145 4.01105 6 20.1274 6 40.0077H24.7826V29.431L35.3593 40.0077H41.9038C41.936 39.9756 41.9681 39.9436 42.0001 39.9113C42.0001 37.486 42.0001 35.3219 42.0001 33.3672L31.4233 22.7904H42Z" fill="#F0F0F0" style="fill:#F0F0F0;fill:color(display-p3 0.9412 0.9412 0.9412);fill-opacity:1;"/>
<path d="M24.2206 8.70312C18.5901 11.9092 13.9092 16.5901 10.7031 22.2206V40.0075H20.0945V18.0946V18.0945H42.0075C42.0075 15.1325 42.0075 12.3107 42.0075 8.70312H24.2206Z" fill="#D80027" style="fill:#D80027;fill:color(display-p3 0.8471 0.0000 0.1529);fill-opacity:1;"/>
<path d="M42.0142 35.5812L29.2239 22.7911H24.7969C24.7969 22.7909 24.7969 22.7911 24.7969 22.7911L42.014 40.0082H42.0142C42.0142 40.0082 42.0142 36.956 42.0142 35.5812Z" fill="#D80027" style="fill:#D80027;fill:color(display-p3 0.8471 0.0000 0.1529);fill-opacity:1;"/>
<path d="M27.7148 46.2695L29.6906 50.4008L34.1522 49.3696L32.1542 53.4902L35.7421 56.3355L31.2749 57.3423L31.2874 61.9217L27.7148 59.0567L24.1424 61.9217L24.1549 57.3423L19.6875 56.3355L23.2755 53.4902L21.2773 49.3696L25.7392 50.4008L27.7148 46.2695Z" fill="#F0F0F0" style="fill:#F0F0F0;fill:color(display-p3 0.9412 0.9412 0.9412);fill-opacity:1;"/>
<path d="M59.8964 54.0957L60.8843 56.1613L63.1152 55.6457L62.116 57.706L63.9101 59.1287L61.6764 59.6321L61.6826 61.9218L59.8964 60.4892L58.1102 61.9218L58.1164 59.6321L55.8828 59.1287L57.6768 57.706L56.6778 55.6457L58.9085 56.1613L59.8964 54.0957Z" fill="#F0F0F0" style="fill:#F0F0F0;fill:color(display-p3 0.9412 0.9412 0.9412);fill-opacity:1;"/>
<path d="M50.7168 32.1816L51.7046 34.2474L53.9355 33.7316L52.9365 35.7919L54.7304 37.2146L52.4969 37.718L52.5029 40.0077L50.7168 38.5752L48.9306 40.0077L48.9367 37.718L46.7031 37.2146L48.4971 35.7919L47.4981 33.7316L49.729 34.2474L50.7168 32.1816Z" fill="#F0F0F0" style="fill:#F0F0F0;fill:color(display-p3 0.9412 0.9412 0.9412);fill-opacity:1;"/>
<path d="M59.8964 19.6602L60.8843 21.7259L63.1152 21.2103L62.1162 23.2706L63.91 24.6931L61.6764 25.1967L61.6826 27.4864L59.8964 26.0538L58.1102 27.4864L58.1164 25.1967L55.8828 24.6931L57.6766 23.2706L56.6778 21.2103L58.9085 21.7259L59.8964 19.6602Z" fill="#F0F0F0" style="fill:#F0F0F0;fill:color(display-p3 0.9412 0.9412 0.9412);fill-opacity:1;"/>
<path d="M67.9278 29.0508L68.9155 31.1166L71.1464 30.6007L70.1474 32.661L71.9414 34.0837L69.7077 34.5873L69.7139 36.8768L67.9278 35.4444L66.1416 36.8768L66.1476 34.5873L63.9141 34.0837L65.708 32.661L64.709 30.6007L66.9398 31.1166L67.9278 29.0508Z" fill="#F0F0F0" style="fill:#F0F0F0;fill:color(display-p3 0.9412 0.9412 0.9412);fill-opacity:1;"/>
<path d="M62.19 40.0078L62.967 42.3993H65.4817L63.4472 43.8774L64.2245 46.2687L62.19 44.7907L60.1558 46.2687L60.9327 43.8774L58.8984 42.3993H61.4129L62.19 40.0078Z" fill="#F0F0F0" style="fill:#F0F0F0;fill:color(display-p3 0.9412 0.9412 0.9412);fill-opacity:1;"/>
</g>
<defs>
<filter id="filter0_dd_982_84190" x="0.375" y="0.257812" width="83.25" height="83.25" filterUnits="userSpaceOnUse" color-interpolation-filters="sRGB">
<feFlood flood-opacity="0" result="BackgroundImageFix"/>
<feColorMatrix in="SourceAlpha" type="matrix" values="0 0 0 0 0 0 0 0 0 0 0 0 0 0 0 0 0 0 127 0" result="hardAlpha"/>
<feOffset dy="1.875"/>
<feGaussianBlur stdDeviation="1.875"/>
<feColorMatrix type="matrix" values="0 0 0 0 0 0 0 0 0 0 0 0 0 0 0 0 0 0 0.06 0"/>
<feBlend mode="normal" in2="BackgroundImageFix" result="effect1_dropShadow_982_84190"/>
<feColorMatrix in="SourceAlpha" type="matrix" values="0 0 0 0 0 0 0 0 0 0 0 0 0 0 0 0 0 0 127 0" result="hardAlpha"/>
<feOffset dy="1.875"/>
<feGaussianBlur stdDeviation="2.8125"/>
<feColorMatrix type="matrix" values="0 0 0 0 0 0 0 0 0 0 0 0 0 0 0 0 0 0 0.1 0"/>
<feBlend mode="normal" in2="effect1_dropShadow_982_84190" result="effect2_dropShadow_982_84190"/>
<feBlend mode="normal" in="SourceGraphic" in2="effect2_dropShadow_982_84190" result="shape"/>
</filter>
<clipPath id="clip0_982_84190">
<rect width="72" height="72" fill="white" style="fill:white;fill-opacity:1;" transform="translate(6 4.00781)"/>
</clipPath>
</defs>
</svg>
