<svg width="40" height="41" viewBox="0 0 40 41" fill="none" xmlns="http://www.w3.org/2000/svg">
<g clip-path="url(#clip0_1161_122197)">
<path d="M20 40.0996C31.0457 40.0996 40 31.1453 40 20.0996C40 9.05391 31.0457 0.0996094 20 0.0996094C8.9543 0.0996094 0 9.05391 0 20.0996C0 31.1453 8.9543 40.0996 20 40.0996Z" fill="#6DA544" style="fill:#6DA544;fill:color(display-p3 0.4275 0.6471 0.2667);fill-opacity:1;"/>
<path d="M11.2969 24.0137C11.2969 25.4544 12.4648 26.6223 13.9055 26.6223H21.7316C21.7316 27.823 22.7049 28.7962 23.9055 28.7962H26.5142C27.7148 28.7962 28.6881 27.823 28.6881 26.6223V24.0137H11.2969Z" fill="#F0F0F0" style="fill:#F0F0F0;fill:color(display-p3 0.9412 0.9412 0.9412);fill-opacity:1;"/>
<path d="M28.911 11.4043V17.4912C28.911 18.4502 28.1309 19.2304 27.1719 19.2304V21.8391C29.5693 21.8391 31.5197 19.8886 31.5197 17.4912V11.4043H28.911Z" fill="#F0F0F0" style="fill:#F0F0F0;fill:color(display-p3 0.9412 0.9412 0.9412);fill-opacity:1;"/>
<path d="M10.2157 17.4912C10.2157 18.4502 9.43555 19.2304 8.47656 19.2304V21.8391C10.874 21.8391 12.8244 19.8886 12.8244 17.4912V11.4043H10.2157V17.4912Z" fill="#F0F0F0" style="fill:#F0F0F0;fill:color(display-p3 0.9412 0.9412 0.9412);fill-opacity:1;"/>
<path d="M25 11.4043H27.6087V17.4912H25V11.4043Z" fill="#F0F0F0" style="fill:#F0F0F0;fill:color(display-p3 0.9412 0.9412 0.9412);fill-opacity:1;"/>
<path d="M21.0893 14.8826C21.0893 15.1223 20.8942 15.3173 20.6545 15.3173C20.4148 15.3173 20.2198 15.1223 20.2198 14.8826V11.4043H17.6111V14.8826C17.6111 15.1223 17.416 15.3173 17.1763 15.3173C16.9366 15.3173 16.7416 15.1223 16.7416 14.8826V11.4043H14.1328V14.8826C14.1328 16.5608 15.4981 17.9261 17.1763 17.9261C17.8227 17.9261 18.422 17.723 18.9155 17.378C19.4088 17.7229 20.0083 17.9261 20.6546 17.9261C20.7848 17.9261 20.9127 17.917 21.0386 17.9009C20.8538 18.6626 20.1678 19.2304 19.3502 19.2304V21.8391C21.7477 21.8391 23.698 19.8886 23.698 17.4912V14.8826V11.4043H21.0894V14.8826H21.0893Z" fill="#F0F0F0" style="fill:#F0F0F0;fill:color(display-p3 0.9412 0.9412 0.9412);fill-opacity:1;"/>
<path d="M14.1328 19.2285H18.0459V21.8372H14.1328V19.2285Z" fill="#F0F0F0" style="fill:#F0F0F0;fill:color(display-p3 0.9412 0.9412 0.9412);fill-opacity:1;"/>
</g>
<defs>
<clipPath id="clip0_1161_122197">
<rect width="40" height="40" fill="white" style="fill:white;fill-opacity:1;" transform="translate(0 0.0996094)"/>
</clipPath>
</defs>
</svg>
