<svg width="26" height="27" viewBox="0 0 26 27" fill="none" xmlns="http://www.w3.org/2000/svg">
<g clip-path="url(#clip0_1161_122455)" filter="url(#filter0_dd_1161_122455)">
<path d="M13 22.1133C18.5228 22.1133 23 17.6361 23 12.1133C23 6.59043 18.5228 2.11328 13 2.11328C7.47715 2.11328 3 6.59043 3 12.1133C3 17.6361 7.47715 22.1133 13 22.1133Z" fill="#496E2D" style="fill:#496E2D;fill:color(display-p3 0.2863 0.4314 0.1765);fill-opacity:1;"/>
<path d="M10.8244 16.4612C13.2256 16.4612 15.1722 14.5147 15.1722 12.1134C15.1722 9.71221 13.2256 7.76562 10.8244 7.76562C8.42314 7.76562 6.47656 9.71221 6.47656 12.1134C6.47656 14.5147 8.42314 16.4612 10.8244 16.4612Z" fill="#D80027" style="fill:#D80027;fill:color(display-p3 0.8471 0.0000 0.1529);fill-opacity:1;"/>
</g>
<defs>
<filter id="filter0_dd_1161_122455" x="0" y="0.113281" width="26" height="26" filterUnits="userSpaceOnUse" color-interpolation-filters="sRGB">
<feFlood flood-opacity="0" result="BackgroundImageFix"/>
<feColorMatrix in="SourceAlpha" type="matrix" values="0 0 0 0 0 0 0 0 0 0 0 0 0 0 0 0 0 0 127 0" result="hardAlpha"/>
<feOffset dy="1"/>
<feGaussianBlur stdDeviation="1"/>
<feColorMatrix type="matrix" values="0 0 0 0 0 0 0 0 0 0 0 0 0 0 0 0 0 0 0.06 0"/>
<feBlend mode="normal" in2="BackgroundImageFix" result="effect1_dropShadow_1161_122455"/>
<feColorMatrix in="SourceAlpha" type="matrix" values="0 0 0 0 0 0 0 0 0 0 0 0 0 0 0 0 0 0 127 0" result="hardAlpha"/>
<feOffset dy="1"/>
<feGaussianBlur stdDeviation="1.5"/>
<feColorMatrix type="matrix" values="0 0 0 0 0 0 0 0 0 0 0 0 0 0 0 0 0 0 0.1 0"/>
<feBlend mode="normal" in2="effect1_dropShadow_1161_122455" result="effect2_dropShadow_1161_122455"/>
<feBlend mode="normal" in="SourceGraphic" in2="effect2_dropShadow_1161_122455" result="shape"/>
</filter>
<clipPath id="clip0_1161_122455">
<rect width="20" height="20" fill="white" style="fill:white;fill-opacity:1;" transform="translate(3 2.11328)"/>
</clipPath>
</defs>
</svg>
