<svg width="48" height="48" viewBox="0 0 48 48" fill="none" xmlns="http://www.w3.org/2000/svg">
<g clip-path="url(#clip0_937_82146)" filter="url(#filter0_dd_937_82146)">
<path d="M44 23.001C44 34.0466 35.0456 43.001 24 43.001C12.9544 43.001 4 34.0466 4 23.001C4 23.0057 24 3.00316 24 3.00098C35.0456 3.00098 44 11.9554 44 23.001Z" fill="#0052B4" style="fill:#0052B4;fill:color(display-p3 0.0000 0.3216 0.7059);fill-opacity:1;"/>
<path d="M23.9531 23.0008H24.0066C24.0066 22.9828 24.0066 22.9653 24.0066 22.9473C23.9888 22.9652 23.971 22.983 23.9531 23.0008Z" fill="#F0F0F0" style="fill:#F0F0F0;fill:color(display-p3 0.9412 0.9412 0.9412);fill-opacity:1;"/>
<path d="M24 13.4357C24 9.9166 24 7.61074 24 3.00098H23.9966C12.9525 3.00285 4 11.9564 4 23.001H14.4348V17.1251L20.3107 23.001H23.9466C23.9644 22.9832 23.9823 22.9654 24.0001 22.9475C24.0001 21.6 24.0001 20.3978 24.0001 19.3118L18.1241 13.4357H24Z" fill="#F0F0F0" style="fill:#F0F0F0;fill:color(display-p3 0.9412 0.9412 0.9412);fill-opacity:1;"/>
<path d="M14.1191 5.60938C10.991 7.39055 8.39055 9.99102 6.60938 13.1191V23.0007H11.8268V10.827V10.8268H24.0007C24.0007 9.18125 24.0007 7.61359 24.0007 5.60938H14.1191Z" fill="#D80027" style="fill:#D80027;fill:color(display-p3 0.8471 0.0000 0.1529);fill-opacity:1;"/>
<path d="M23.9948 20.5413L16.8891 13.4355C16.8891 13.4355 14.4297 13.4357 14.4297 13.4355V13.4357L23.9948 23.0007H23.9948C23.9948 23.0007 23.9948 21.3048 23.9948 20.5413Z" fill="#D80027" style="fill:#D80027;fill:color(display-p3 0.8471 0.0000 0.1529);fill-opacity:1;"/>
<path d="M38.6334 17.8408L39.0651 19.1694H40.462L39.3319 19.9905L39.7636 21.319L38.6334 20.498L37.5032 21.319L37.9349 19.9905L36.8047 19.1694H38.2016L38.6334 17.8408Z" fill="#D80027" style="fill:#D80027;fill:color(display-p3 0.8471 0.0000 0.1529);fill-opacity:1;"/>
<path d="M33.6414 27.4062L34.289 29.3992H36.3844L34.6891 30.6308L35.3367 32.6237L33.6414 31.392L31.9461 32.6237L32.5938 30.6308L30.8984 29.3992H32.9938L33.6414 27.4062Z" fill="#D80027" style="fill:#D80027;fill:color(display-p3 0.8471 0.0000 0.1529);fill-opacity:1;"/>
<path d="M33.8248 11.7539L34.3645 13.4148H36.1106L34.6978 14.4409L35.2375 16.1017L33.8248 15.0752L32.4121 16.1017L32.9517 14.4409L31.5391 13.4148H33.2852L33.8248 11.7539Z" fill="#D80027" style="fill:#D80027;fill:color(display-p3 0.8471 0.0000 0.1529);fill-opacity:1;"/>
<path d="M29.032 17.7832L29.6795 19.7762H31.775L30.0797 21.0077L30.7273 23.0006L29.032 21.769L27.3367 23.0006L27.9844 21.0077L26.2891 19.7762H28.3845L29.032 17.7832Z" fill="#D80027" style="fill:#D80027;fill:color(display-p3 0.8471 0.0000 0.1529);fill-opacity:1;"/>
</g>
<defs>
<filter id="filter0_dd_937_82146" x="0.25" y="0.500977" width="47.5" height="47.5" filterUnits="userSpaceOnUse" color-interpolation-filters="sRGB">
<feFlood flood-opacity="0" result="BackgroundImageFix"/>
<feColorMatrix in="SourceAlpha" type="matrix" values="0 0 0 0 0 0 0 0 0 0 0 0 0 0 0 0 0 0 127 0" result="hardAlpha"/>
<feOffset dy="1.25"/>
<feGaussianBlur stdDeviation="1.25"/>
<feColorMatrix type="matrix" values="0 0 0 0 0 0 0 0 0 0 0 0 0 0 0 0 0 0 0.06 0"/>
<feBlend mode="normal" in2="BackgroundImageFix" result="effect1_dropShadow_937_82146"/>
<feColorMatrix in="SourceAlpha" type="matrix" values="0 0 0 0 0 0 0 0 0 0 0 0 0 0 0 0 0 0 127 0" result="hardAlpha"/>
<feOffset dy="1.25"/>
<feGaussianBlur stdDeviation="1.875"/>
<feColorMatrix type="matrix" values="0 0 0 0 0 0 0 0 0 0 0 0 0 0 0 0 0 0 0.1 0"/>
<feBlend mode="normal" in2="effect1_dropShadow_937_82146" result="effect2_dropShadow_937_82146"/>
<feBlend mode="normal" in="SourceGraphic" in2="effect2_dropShadow_937_82146" result="shape"/>
</filter>
<clipPath id="clip0_937_82146">
<rect width="40" height="40" fill="white" style="fill:white;fill-opacity:1;" transform="translate(4 3.00098)"/>
</clipPath>
</defs>
</svg>
