<svg width="84" height="84" viewBox="0 0 84 84" fill="none" xmlns="http://www.w3.org/2000/svg">
<g clip-path="url(#clip0_982_84265)" filter="url(#filter0_dd_982_84265)">
<path d="M42 76.1953C61.8823 76.1953 78 60.0776 78 40.1953C78 20.3131 61.8823 4.19531 42 4.19531C22.1177 4.19531 6 20.3131 6 40.1953C6 60.0776 22.1177 76.1953 42 76.1953Z" fill="#F0F0F0" style="fill:#F0F0F0;fill:color(display-p3 0.9412 0.9412 0.9412);fill-opacity:1;"/>
<path d="M75.7608 27.6738H8.23917C6.792 31.5738 6 35.792 6 40.1955C6 44.599 6.792 48.8172 8.23917 52.7172H75.761C77.208 48.8172 78 44.599 78 40.1955C78 35.792 77.208 31.5738 75.7608 27.6738Z" fill="#0052B4" style="fill:#0052B4;fill:color(display-p3 0.0000 0.3216 0.7059);fill-opacity:1;"/>
<path d="M42.0008 4.19531C31.0895 4.19531 21.3129 9.05025 14.7109 16.717H69.2905C62.6887 9.05025 52.912 4.19531 42.0008 4.19531V4.19531Z" fill="#D80027" style="fill:#D80027;fill:color(display-p3 0.8471 0.0000 0.1529);fill-opacity:1;"/>
<path d="M69.2906 63.6758H14.7109C21.3129 71.3425 31.0895 76.1975 42.0008 76.1975C52.912 76.1975 62.6887 71.3425 69.2906 63.6758Z" fill="#D80027" style="fill:#D80027;fill:color(display-p3 0.8471 0.0000 0.1529);fill-opacity:1;"/>
</g>
<defs>
<filter id="filter0_dd_982_84265" x="0.375" y="0.445312" width="83.25" height="83.25" filterUnits="userSpaceOnUse" color-interpolation-filters="sRGB">
<feFlood flood-opacity="0" result="BackgroundImageFix"/>
<feColorMatrix in="SourceAlpha" type="matrix" values="0 0 0 0 0 0 0 0 0 0 0 0 0 0 0 0 0 0 127 0" result="hardAlpha"/>
<feOffset dy="1.875"/>
<feGaussianBlur stdDeviation="1.875"/>
<feColorMatrix type="matrix" values="0 0 0 0 0 0 0 0 0 0 0 0 0 0 0 0 0 0 0.06 0"/>
<feBlend mode="normal" in2="BackgroundImageFix" result="effect1_dropShadow_982_84265"/>
<feColorMatrix in="SourceAlpha" type="matrix" values="0 0 0 0 0 0 0 0 0 0 0 0 0 0 0 0 0 0 127 0" result="hardAlpha"/>
<feOffset dy="1.875"/>
<feGaussianBlur stdDeviation="2.8125"/>
<feColorMatrix type="matrix" values="0 0 0 0 0 0 0 0 0 0 0 0 0 0 0 0 0 0 0.1 0"/>
<feBlend mode="normal" in2="effect1_dropShadow_982_84265" result="effect2_dropShadow_982_84265"/>
<feBlend mode="normal" in="SourceGraphic" in2="effect2_dropShadow_982_84265" result="shape"/>
</filter>
<clipPath id="clip0_982_84265">
<rect width="72" height="72" fill="white" style="fill:white;fill-opacity:1;" transform="translate(6 4.19531)"/>
</clipPath>
</defs>
</svg>
