<svg width="23" height="27" viewBox="0 0 23 27" fill="none" xmlns="http://www.w3.org/2000/svg">
<g clip-path="url(#clip0_1203_138293)" filter="url(#filter0_dd_1203_138293)">
<path d="M10 22.5C15.5228 22.5 20 18.0228 20 12.5C20 6.97715 15.5228 2.5 10 2.5C4.47715 2.5 0 6.97715 0 12.5C0 18.0228 4.47715 22.5 10 22.5Z" fill="#F0F0F0" style="fill:#F0F0F0;fill:color(display-p3 0.9412 0.9412 0.9412);fill-opacity:1;"/>
<path d="M19.378 9.02148H0.621992C0.22 10.1048 0 11.2765 0 12.4997C0 13.7229 0.22 14.8946 0.621992 15.978H19.378C19.78 14.8946 20 13.7229 20 12.4997C20 11.2765 19.78 10.1048 19.378 9.02148Z" fill="#0052B4" style="fill:#0052B4;fill:color(display-p3 0.0000 0.3216 0.7059);fill-opacity:1;"/>
<path d="M10.0024 2.5C6.97148 2.5 4.25574 3.84859 2.42188 5.97824H17.5829C15.749 3.84859 13.0333 2.5 10.0024 2.5V2.5Z" fill="#D80027" style="fill:#D80027;fill:color(display-p3 0.8471 0.0000 0.1529);fill-opacity:1;"/>
<path d="M17.5829 19.0215H2.42188C4.25574 21.1511 6.97148 22.4997 10.0024 22.4997C13.0333 22.4997 15.749 21.1511 17.5829 19.0215Z" fill="#D80027" style="fill:#D80027;fill:color(display-p3 0.8471 0.0000 0.1529);fill-opacity:1;"/>
</g>
<defs>
<filter id="filter0_dd_1203_138293" x="-3" y="0.5" width="26" height="26" filterUnits="userSpaceOnUse" color-interpolation-filters="sRGB">
<feFlood flood-opacity="0" result="BackgroundImageFix"/>
<feColorMatrix in="SourceAlpha" type="matrix" values="0 0 0 0 0 0 0 0 0 0 0 0 0 0 0 0 0 0 127 0" result="hardAlpha"/>
<feOffset dy="1"/>
<feGaussianBlur stdDeviation="1"/>
<feColorMatrix type="matrix" values="0 0 0 0 0 0 0 0 0 0 0 0 0 0 0 0 0 0 0.06 0"/>
<feBlend mode="normal" in2="BackgroundImageFix" result="effect1_dropShadow_1203_138293"/>
<feColorMatrix in="SourceAlpha" type="matrix" values="0 0 0 0 0 0 0 0 0 0 0 0 0 0 0 0 0 0 127 0" result="hardAlpha"/>
<feOffset dy="1"/>
<feGaussianBlur stdDeviation="1.5"/>
<feColorMatrix type="matrix" values="0 0 0 0 0 0 0 0 0 0 0 0 0 0 0 0 0 0 0.1 0"/>
<feBlend mode="normal" in2="effect1_dropShadow_1203_138293" result="effect2_dropShadow_1203_138293"/>
<feBlend mode="normal" in="SourceGraphic" in2="effect2_dropShadow_1203_138293" result="shape"/>
</filter>
<clipPath id="clip0_1203_138293">
<rect width="20" height="20" fill="white" style="fill:white;fill-opacity:1;" transform="translate(0 2.5)"/>
</clipPath>
</defs>
</svg>
