<svg width="56" height="57" viewBox="0 0 56 57" fill="none" xmlns="http://www.w3.org/2000/svg">
<g clip-path="url(#clip0_1048_88984)" filter="url(#filter0_dd_1048_88984)">
<path d="M28 51.4629C41.2548 51.4629 52 40.7177 52 27.4629C52 14.2081 41.2548 3.46289 28 3.46289C14.7452 3.46289 4 14.2081 4 27.4629C4 40.7177 14.7452 51.4629 28 51.4629Z" fill="#F0F0F0" style="fill:#F0F0F0;fill:color(display-p3 0.9412 0.9412 0.9412);fill-opacity:1;"/>
<path d="M26.9531 27.4621H51.9966C51.9966 25.2959 51.7078 23.1974 51.1698 21.2012H26.9531V27.4621Z" fill="#D80027" style="fill:#D80027;fill:color(display-p3 0.8471 0.0000 0.1529);fill-opacity:1;"/>
<path d="M26.9531 14.9406H48.474C47.0048 12.5432 45.1264 10.4242 42.9362 8.67969H26.9531V14.9406Z" fill="#D80027" style="fill:#D80027;fill:color(display-p3 0.8471 0.0000 0.1529);fill-opacity:1;"/>
<path d="M28.0021 51.4635C33.6505 51.4635 38.8421 49.5112 42.9417 46.2461H13.0625C17.1622 49.5112 22.3538 51.4635 28.0021 51.4635Z" fill="#D80027" style="fill:#D80027;fill:color(display-p3 0.8471 0.0000 0.1529);fill-opacity:1;"/>
<path d="M7.52391 39.9836H48.4788C49.6583 38.059 50.573 35.9552 51.1746 33.7227H4.82812C5.42972 35.9552 6.34444 38.059 7.52391 39.9836V39.9836Z" fill="#D80027" style="fill:#D80027;fill:color(display-p3 0.8471 0.0000 0.1529);fill-opacity:1;"/>
<path d="M15.1172 7.21083H17.3043L15.27 8.6888L16.0471 11.0803L14.0128 9.6023L11.9785 11.0803L12.6497 9.0143C10.8586 10.5063 9.28862 12.2544 7.99487 14.2021H8.69566L7.40069 15.1429C7.19894 15.4795 7.00544 15.8214 6.82 16.1684L7.43837 18.0716L6.28469 17.2334C5.99791 17.841 5.73559 18.4622 5.49981 19.0965L6.18109 21.1935H8.69566L6.66128 22.6714L7.43837 25.0629L5.40409 23.5849L4.18553 24.4703C4.06356 25.4507 4 26.4494 4 27.4629H28C28 14.2081 28 12.6455 28 3.46289C23.2589 3.46289 18.8392 4.8382 15.1172 7.21083V7.21083ZM16.0471 25.0629L14.0128 23.5849L11.9785 25.0629L12.7556 22.6714L10.7212 21.1935H13.2358L14.0128 18.802L14.7898 21.1935H17.3043L15.27 22.6714L16.0471 25.0629ZM15.27 15.6801L16.0471 18.0716L14.0128 16.5936L11.9785 18.0716L12.7556 15.6801L10.7212 14.2021H13.2358L14.0128 11.8107L14.7898 14.2021H17.3043L15.27 15.6801ZM24.6558 25.0629L22.6215 23.5849L20.5872 25.0629L21.3643 22.6714L19.3299 21.1935H21.8445L22.6215 18.802L23.3985 21.1935H25.913L23.8787 22.6714L24.6558 25.0629ZM23.8787 15.6801L24.6558 18.0716L22.6215 16.5936L20.5872 18.0716L21.3643 15.6801L19.3299 14.2021H21.8445L22.6215 11.8107L23.3985 14.2021H25.913L23.8787 15.6801ZM23.8787 8.6888L24.6558 11.0803L22.6215 9.6023L20.5872 11.0803L21.3643 8.6888L19.3299 7.21083H21.8445L22.6215 4.81936L23.3985 7.21083H25.913L23.8787 8.6888Z" fill="#0052B4" style="fill:#0052B4;fill:color(display-p3 0.0000 0.3216 0.7059);fill-opacity:1;"/>
</g>
<defs>
<filter id="filter0_dd_1048_88984" x="0.25" y="0.962891" width="55.5" height="55.5" filterUnits="userSpaceOnUse" color-interpolation-filters="sRGB">
<feFlood flood-opacity="0" result="BackgroundImageFix"/>
<feColorMatrix in="SourceAlpha" type="matrix" values="0 0 0 0 0 0 0 0 0 0 0 0 0 0 0 0 0 0 127 0" result="hardAlpha"/>
<feOffset dy="1.25"/>
<feGaussianBlur stdDeviation="1.25"/>
<feColorMatrix type="matrix" values="0 0 0 0 0 0 0 0 0 0 0 0 0 0 0 0 0 0 0.06 0"/>
<feBlend mode="normal" in2="BackgroundImageFix" result="effect1_dropShadow_1048_88984"/>
<feColorMatrix in="SourceAlpha" type="matrix" values="0 0 0 0 0 0 0 0 0 0 0 0 0 0 0 0 0 0 127 0" result="hardAlpha"/>
<feOffset dy="1.25"/>
<feGaussianBlur stdDeviation="1.875"/>
<feColorMatrix type="matrix" values="0 0 0 0 0 0 0 0 0 0 0 0 0 0 0 0 0 0 0.1 0"/>
<feBlend mode="normal" in2="effect1_dropShadow_1048_88984" result="effect2_dropShadow_1048_88984"/>
<feBlend mode="normal" in="SourceGraphic" in2="effect2_dropShadow_1048_88984" result="shape"/>
</filter>
<clipPath id="clip0_1048_88984">
<rect width="48" height="48" fill="white" style="fill:white;fill-opacity:1;" transform="translate(4 3.46289)"/>
</clipPath>
</defs>
</svg>
