<svg width="56" height="57" viewBox="0 0 56 57" fill="none" xmlns="http://www.w3.org/2000/svg">
<g clip-path="url(#clip0_1048_88897)" filter="url(#filter0_dd_1048_88897)">
<path d="M28 51.3378C41.2548 51.3378 51.9999 40.5927 51.9999 27.3378C51.9999 14.083 41.2548 3.33789 28 3.33789C14.7451 3.33789 4 14.083 4 27.3378C4 40.5927 14.7451 51.3378 28 51.3378Z" fill="#FFDA44" style="fill:#FFDA44;fill:color(display-p3 1.0000 0.8549 0.2667);fill-opacity:1;"/>
<path d="M22.783 7.51172H14.4734C14.1052 7.76344 13.7448 8.02547 13.3917 8.29669L11.3047 27.3377L13.3917 46.3787C13.7448 46.65 14.1052 46.912 14.4734 47.1637H22.783V7.51172Z" fill="#FF9811" style="fill:#FF9811;fill:color(display-p3 1.0000 0.5961 0.0667);fill-opacity:1;"/>
<path d="M4 27.338C4 35.0953 7.68138 41.9918 13.3913 46.379V8.29688C7.68138 12.6842 4 19.5806 4 27.338V27.338Z" fill="#6DA544" style="fill:#6DA544;fill:color(display-p3 0.4275 0.6471 0.2667);fill-opacity:1;"/>
<path d="M42.6094 17.9688V18.5692L42.6317 18.5726L42.6094 17.9688Z" fill="#FFDA44" style="fill:#FFDA44;fill:color(display-p3 1.0000 0.8549 0.2667);fill-opacity:1;"/>
<path d="M50.088 33.5986H45.5661L43.6532 35.6856V39.8595H39.4792V37.7725H41.5662V33.5986H32.1749V36.2073H30.0879V31.2356C29.4476 30.6624 29.0445 29.8298 29.0445 28.9029V15.3378C29.0445 13.6089 30.446 12.2074 32.1749 12.2074V31.5117H36.3488L37.7809 30.3182C37.5308 29.7224 37.3923 29.0681 37.3923 28.3813V25.2509H34.2618V18.9901H40.5227C40.5227 17.9467 42.0879 16.9031 42.0879 16.9031C42.0879 16.9031 43.6532 17.9466 43.6532 18.9901V20.5553V25.251C44.8141 25.2648 46.6585 25.2347 48.6512 25.251C48.1277 24.336 47.827 23.2503 47.827 22.1206C47.827 20.2792 48.622 18.6238 49.8874 17.4782C48.0634 13.4362 45.1529 9.98972 41.5278 7.51172H25.9141V47.1638H41.5279C45.936 44.1506 49.2874 39.7058 50.9134 34.4992L50.088 33.5986Z" fill="#A2001D" style="fill:#A2001D;fill:color(display-p3 0.6353 0.0000 0.1137);fill-opacity:1;"/>
</g>
<defs>
<filter id="filter0_dd_1048_88897" x="0.25" y="0.837891" width="55.5" height="55.5" filterUnits="userSpaceOnUse" color-interpolation-filters="sRGB">
<feFlood flood-opacity="0" result="BackgroundImageFix"/>
<feColorMatrix in="SourceAlpha" type="matrix" values="0 0 0 0 0 0 0 0 0 0 0 0 0 0 0 0 0 0 127 0" result="hardAlpha"/>
<feOffset dy="1.25"/>
<feGaussianBlur stdDeviation="1.25"/>
<feColorMatrix type="matrix" values="0 0 0 0 0 0 0 0 0 0 0 0 0 0 0 0 0 0 0.06 0"/>
<feBlend mode="normal" in2="BackgroundImageFix" result="effect1_dropShadow_1048_88897"/>
<feColorMatrix in="SourceAlpha" type="matrix" values="0 0 0 0 0 0 0 0 0 0 0 0 0 0 0 0 0 0 127 0" result="hardAlpha"/>
<feOffset dy="1.25"/>
<feGaussianBlur stdDeviation="1.875"/>
<feColorMatrix type="matrix" values="0 0 0 0 0 0 0 0 0 0 0 0 0 0 0 0 0 0 0.1 0"/>
<feBlend mode="normal" in2="effect1_dropShadow_1048_88897" result="effect2_dropShadow_1048_88897"/>
<feBlend mode="normal" in="SourceGraphic" in2="effect2_dropShadow_1048_88897" result="shape"/>
</filter>
<clipPath id="clip0_1048_88897">
<rect width="48" height="48" fill="white" style="fill:white;fill-opacity:1;" transform="translate(4 3.33789)"/>
</clipPath>
</defs>
</svg>
