<svg width="28" height="28" viewBox="0 0 28 28" fill="none" xmlns="http://www.w3.org/2000/svg">
<g clip-path="url(#clip0_937_82339)" filter="url(#filter0_dd_937_82339)">
<path d="M14 22.5C19.5228 22.5 24 18.0228 24 12.5C24 6.97715 19.5228 2.5 14 2.5C8.47715 2.5 4 6.97715 4 12.5C4 18.0228 8.47715 22.5 14 22.5Z" fill="#F0F0F0" style="fill:#F0F0F0;fill:color(display-p3 0.9412 0.9412 0.9412);fill-opacity:1;"/>
<path d="M23.9959 12.4999C23.9959 8.53531 21.6887 5.10969 18.3438 3.49219V21.5076C21.6887 19.8902 23.9959 16.4645 23.9959 12.4999V12.4999Z" fill="#D80027" style="fill:#D80027;fill:color(display-p3 0.8471 0.0000 0.1529);fill-opacity:1;"/>
<path d="M4 12.4999C4 16.4645 6.30723 19.8902 9.65219 21.5077V3.49219C6.30723 5.10969 4 8.53531 4 12.4999Z" fill="#D80027" style="fill:#D80027;fill:color(display-p3 0.8471 0.0000 0.1529);fill-opacity:1;"/>
<path d="M15.7408 13.8048L17.4799 12.9353L16.6104 12.5005V11.6309L14.8712 12.5005L15.7408 10.7614H14.8712L14.0017 9.45703L13.1321 10.7614H12.2625L13.1321 12.5005L11.393 11.6309V12.5005L10.5234 12.9353L12.2625 13.8048L11.8278 14.6744H13.5669V15.9787H14.4364V14.6744H16.1756L15.7408 13.8048Z" fill="#D80027" style="fill:#D80027;fill:color(display-p3 0.8471 0.0000 0.1529);fill-opacity:1;"/>
</g>
<defs>
<filter id="filter0_dd_937_82339" x="0.25" y="0" width="27.5" height="27.5" filterUnits="userSpaceOnUse" color-interpolation-filters="sRGB">
<feFlood flood-opacity="0" result="BackgroundImageFix"/>
<feColorMatrix in="SourceAlpha" type="matrix" values="0 0 0 0 0 0 0 0 0 0 0 0 0 0 0 0 0 0 127 0" result="hardAlpha"/>
<feOffset dy="1.25"/>
<feGaussianBlur stdDeviation="1.25"/>
<feColorMatrix type="matrix" values="0 0 0 0 0 0 0 0 0 0 0 0 0 0 0 0 0 0 0.06 0"/>
<feBlend mode="normal" in2="BackgroundImageFix" result="effect1_dropShadow_937_82339"/>
<feColorMatrix in="SourceAlpha" type="matrix" values="0 0 0 0 0 0 0 0 0 0 0 0 0 0 0 0 0 0 127 0" result="hardAlpha"/>
<feOffset dy="1.25"/>
<feGaussianBlur stdDeviation="1.875"/>
<feColorMatrix type="matrix" values="0 0 0 0 0 0 0 0 0 0 0 0 0 0 0 0 0 0 0.1 0"/>
<feBlend mode="normal" in2="effect1_dropShadow_937_82339" result="effect2_dropShadow_937_82339"/>
<feBlend mode="normal" in="SourceGraphic" in2="effect2_dropShadow_937_82339" result="shape"/>
</filter>
<clipPath id="clip0_937_82339">
<rect width="20" height="20" fill="white" style="fill:white;fill-opacity:1;" transform="translate(4 2.5)"/>
</clipPath>
</defs>
</svg>
