<svg width="84" height="84" viewBox="0 0 84 84" fill="none" xmlns="http://www.w3.org/2000/svg">
<g clip-path="url(#clip0_982_84277)" filter="url(#filter0_dd_982_84277)">
<path d="M78 40.1953C78 60.0774 61.8821 76.1953 42 76.1953C22.1179 76.1953 6 60.0774 6 40.1953C18.3652 27.8302 28.8521 17.3432 42 4.19531C61.8821 4.19531 78 20.3132 78 40.1953Z" fill="#D80027" style="fill:#D80027;fill:color(display-p3 0.8471 0.0000 0.1529);fill-opacity:1;"/>
<path d="M42 40.1953C42 20.3132 42 17.9692 42 4.19531C22.1179 4.19531 6 20.3132 6 40.1953H42Z" fill="#0052B4" style="fill:#0052B4;fill:color(display-p3 0.0000 0.3216 0.7059);fill-opacity:1;"/>
<path d="M37.3011 25.2629L32.9045 27.3312L35.2456 31.5892L30.4715 30.6757L29.8664 35.4987L26.5412 31.9516L23.2157 35.4987L22.6108 30.6757L17.8366 31.5889L20.1777 27.3309L15.7812 25.2629L20.1779 23.195L17.8366 18.9369L22.6107 19.8502L23.2158 15.0273L26.5412 18.5745L29.8665 15.0273L30.4715 19.8502L35.2457 18.9369L32.9045 23.1951L37.3011 25.2629Z" fill="#F0F0F0" style="fill:#F0F0F0;fill:color(display-p3 0.9412 0.9412 0.9412);fill-opacity:1;"/>
<path d="M26.545 31.9649C30.2459 31.9649 33.2462 28.9647 33.2462 25.2637C33.2462 21.5627 30.2459 18.5625 26.545 18.5625C22.844 18.5625 19.8438 21.5627 19.8438 25.2637C19.8438 28.9647 22.844 31.9649 26.545 31.9649Z" fill="#0052B4" style="fill:#0052B4;fill:color(display-p3 0.0000 0.3216 0.7059);fill-opacity:1;"/>
<path d="M26.5472 28.8349C24.5783 28.8349 22.9766 27.233 22.9766 25.2641C22.9766 23.2952 24.5784 21.6934 26.5472 21.6934C28.5161 21.6934 30.1179 23.2952 30.1179 25.2641C30.1178 27.233 28.5158 28.8349 26.5472 28.8349Z" fill="#F0F0F0" style="fill:#F0F0F0;fill:color(display-p3 0.9412 0.9412 0.9412);fill-opacity:1;"/>
</g>
<defs>
<filter id="filter0_dd_982_84277" x="0.375" y="0.445312" width="83.25" height="83.25" filterUnits="userSpaceOnUse" color-interpolation-filters="sRGB">
<feFlood flood-opacity="0" result="BackgroundImageFix"/>
<feColorMatrix in="SourceAlpha" type="matrix" values="0 0 0 0 0 0 0 0 0 0 0 0 0 0 0 0 0 0 127 0" result="hardAlpha"/>
<feOffset dy="1.875"/>
<feGaussianBlur stdDeviation="1.875"/>
<feColorMatrix type="matrix" values="0 0 0 0 0 0 0 0 0 0 0 0 0 0 0 0 0 0 0.06 0"/>
<feBlend mode="normal" in2="BackgroundImageFix" result="effect1_dropShadow_982_84277"/>
<feColorMatrix in="SourceAlpha" type="matrix" values="0 0 0 0 0 0 0 0 0 0 0 0 0 0 0 0 0 0 127 0" result="hardAlpha"/>
<feOffset dy="1.875"/>
<feGaussianBlur stdDeviation="2.8125"/>
<feColorMatrix type="matrix" values="0 0 0 0 0 0 0 0 0 0 0 0 0 0 0 0 0 0 0.1 0"/>
<feBlend mode="normal" in2="effect1_dropShadow_982_84277" result="effect2_dropShadow_982_84277"/>
<feBlend mode="normal" in="SourceGraphic" in2="effect2_dropShadow_982_84277" result="shape"/>
</filter>
<clipPath id="clip0_982_84277">
<rect width="72" height="72" fill="white" style="fill:white;fill-opacity:1;" transform="translate(6 4.19531)"/>
</clipPath>
</defs>
</svg>
