<svg width="56" height="56" viewBox="0 0 56 56" fill="none" xmlns="http://www.w3.org/2000/svg">
<g clip-path="url(#clip0_1048_88780)" filter="url(#filter0_dd_1048_88780)">
<path d="M28 50.8379C41.2548 50.8379 52 40.0927 52 26.8379C52 13.5831 41.2548 2.83789 28 2.83789C14.7452 2.83789 4 13.5831 4 26.8379C4 40.0927 14.7452 50.8379 28 50.8379Z" fill="#496E2D" style="fill:#496E2D;fill:color(display-p3 0.2863 0.4314 0.1765);fill-opacity:1;"/>
<path d="M22.7863 37.2718C28.5493 37.2718 33.2211 32.6 33.2211 26.8371C33.2211 21.0741 28.5493 16.4023 22.7863 16.4023C17.0234 16.4023 12.3516 21.0741 12.3516 26.8371C12.3516 32.6 17.0234 37.2718 22.7863 37.2718Z" fill="#D80027" style="fill:#D80027;fill:color(display-p3 0.8471 0.0000 0.1529);fill-opacity:1;"/>
</g>
<defs>
<filter id="filter0_dd_1048_88780" x="0.25" y="0.337891" width="55.5" height="55.5" filterUnits="userSpaceOnUse" color-interpolation-filters="sRGB">
<feFlood flood-opacity="0" result="BackgroundImageFix"/>
<feColorMatrix in="SourceAlpha" type="matrix" values="0 0 0 0 0 0 0 0 0 0 0 0 0 0 0 0 0 0 127 0" result="hardAlpha"/>
<feOffset dy="1.25"/>
<feGaussianBlur stdDeviation="1.25"/>
<feColorMatrix type="matrix" values="0 0 0 0 0 0 0 0 0 0 0 0 0 0 0 0 0 0 0.06 0"/>
<feBlend mode="normal" in2="BackgroundImageFix" result="effect1_dropShadow_1048_88780"/>
<feColorMatrix in="SourceAlpha" type="matrix" values="0 0 0 0 0 0 0 0 0 0 0 0 0 0 0 0 0 0 127 0" result="hardAlpha"/>
<feOffset dy="1.25"/>
<feGaussianBlur stdDeviation="1.875"/>
<feColorMatrix type="matrix" values="0 0 0 0 0 0 0 0 0 0 0 0 0 0 0 0 0 0 0.1 0"/>
<feBlend mode="normal" in2="effect1_dropShadow_1048_88780" result="effect2_dropShadow_1048_88780"/>
<feBlend mode="normal" in="SourceGraphic" in2="effect2_dropShadow_1048_88780" result="shape"/>
</filter>
<clipPath id="clip0_1048_88780">
<rect width="48" height="48" fill="white" style="fill:white;fill-opacity:1;" transform="translate(4 2.83789)"/>
</clipPath>
</defs>
</svg>
