<svg width="60" height="61" viewBox="0 0 60 61" fill="none" xmlns="http://www.w3.org/2000/svg">
<g clip-path="url(#clip0_1164_123219)">
<path d="M30 60.1523C46.5685 60.1523 60 46.7209 60 30.1523C60 13.5838 46.5685 0.152344 30 0.152344C13.4315 0.152344 0 13.5838 0 30.1523C0 46.7209 13.4315 60.1523 30 60.1523Z" fill="#F0F0F0" style="fill:#F0F0F0;fill:color(display-p3 0.9412 0.9412 0.9412);fill-opacity:1;"/>
<path d="M59.823 33.4135C59.823 33.4132 59.8232 33.413 59.8232 33.4125L26.9234 0.308594C25.4392 0.459883 23.9869 0.719336 22.5746 1.07898C9.59742 4.38309 0 30.1526 0 30.1526C0 30.1526 41.9998 58.2583 46.7912 55.0156C47.7499 54.3668 48.6691 53.6641 49.5443 52.9117L30.0463 33.4135H59.823Z" fill="#0052B4" style="fill:#0052B4;fill:color(display-p3 0.0000 0.3216 0.7059);fill-opacity:1;"/>
<path d="M52.1739 30.1529L22.9975 0.976562C9.80719 4.1309 0 15.9957 0 30.1529C0 46.7213 13.4316 60.1529 30 60.1529C36.2847 60.1529 42.1168 58.219 46.937 54.9159L22.1739 30.1529H52.1739Z" fill="#D80027" style="fill:#D80027;fill:color(display-p3 0.8471 0.0000 0.1529);fill-opacity:1;"/>
<path d="M28.5193 44.4459L24.8554 42.7225L26.8064 39.1742L22.8279 39.9353L22.3238 35.916L19.5527 38.8721L16.7815 35.916L16.2773 39.9353L12.2989 39.1741L14.2499 42.7225L10.5859 44.4459L14.2499 46.1691L12.2989 49.7175L16.2775 48.9565L16.7814 52.9756L19.5527 50.0195L22.3238 52.9756L22.8279 48.9565L26.8063 49.7177L24.8553 46.1693L28.5193 44.4459Z" fill="#F0F0F0" style="fill:#F0F0F0;fill:color(display-p3 0.9412 0.9412 0.9412);fill-opacity:1;"/>
<path d="M26.0748 16.7898L23.41 15.5365L24.829 12.9557L21.9353 13.5093L21.5686 10.5859L19.5531 12.736L17.5376 10.5859L17.1708 13.5093L14.2771 12.9557L15.6962 15.5365L13.0312 16.7898L19.5531 18.0944L26.0748 16.7898Z" fill="#F0F0F0" style="fill:#F0F0F0;fill:color(display-p3 0.9412 0.9412 0.9412);fill-opacity:1;"/>
<path d="M27.3788 16.7891C27.3788 21.1113 23.8749 24.6152 19.5527 24.6152C15.2305 24.6152 11.7266 21.1113 11.7266 16.7891" fill="#F0F0F0" style="fill:#F0F0F0;fill:color(display-p3 0.9412 0.9412 0.9412);fill-opacity:1;"/>
</g>
<defs>
<clipPath id="clip0_1164_123219">
<rect width="60" height="60" fill="white" style="fill:white;fill-opacity:1;" transform="translate(0 0.152344)"/>
</clipPath>
</defs>
</svg>
