<svg width="72" height="72" viewBox="0 0 72 72" fill="none" xmlns="http://www.w3.org/2000/svg">
<g clip-path="url(#clip0_1164_123206)" filter="url(#filter0_dd_1164_123206)">
<path d="M35.9999 63.8026C52.5685 63.8026 65.9999 50.3712 65.9999 33.8027C65.9999 17.2342 52.5685 3.80273 35.9999 3.80273C19.4314 3.80273 6 17.2342 6 33.8027C6 50.3712 19.4314 63.8026 35.9999 63.8026Z" fill="#FFDA44" style="fill:#FFDA44;fill:color(display-p3 1.0000 0.8549 0.2667);fill-opacity:1;"/>
<path d="M29.4729 9.02148H19.0859C18.6256 9.33613 18.1752 9.66367 17.7337 10.0027L15.125 33.8039L17.7337 57.6052C18.1752 57.9443 18.6256 58.2719 19.0859 58.5864H29.4729V9.02148Z" fill="#FF9811" style="fill:#FF9811;fill:color(display-p3 1.0000 0.5961 0.0667);fill-opacity:1;"/>
<path d="M6 33.8033C6 43.5 10.6017 52.1205 17.7391 57.6046V10.002C10.6017 15.4861 6 24.1066 6 33.8033V33.8033Z" fill="#6DA544" style="fill:#6DA544;fill:color(display-p3 0.4275 0.6471 0.2667);fill-opacity:1;"/>
<path d="M54.2656 22.0918V22.8424L54.2935 22.8466L54.2656 22.0918Z" fill="#FFDA44" style="fill:#FFDA44;fill:color(display-p3 1.0000 0.8549 0.2667);fill-opacity:1;"/>
<path d="M63.608 41.6301H57.9557L55.5645 44.2388V49.4562H50.3471V46.8475H52.9558V41.6301H41.2166V44.8909H38.6079V38.6764C37.8075 37.9599 37.3036 36.9191 37.3036 35.7605V18.8041C37.3036 16.643 39.0556 14.8911 41.2166 14.8911V39.0215H46.4341L48.2242 37.5296C47.9116 36.7848 47.7384 35.967 47.7384 35.1085V31.1955H43.8253V23.3695H51.6514C51.6514 22.0652 53.6079 20.7607 53.6079 20.7607C53.6079 20.7607 55.5645 22.065 55.5645 23.3695V25.326V31.1956C57.0156 31.2128 59.3212 31.1752 61.812 31.1956C61.1576 30.0518 60.7818 28.6947 60.7818 27.2826C60.7818 24.9809 61.7755 22.9116 63.3573 21.4796C61.0773 16.427 57.4391 12.119 52.9078 9.02148H33.3906V58.5866H52.908C58.418 54.8201 62.6073 49.2641 64.6398 42.7558L63.608 41.6301Z" fill="#A2001D" style="fill:#A2001D;fill:color(display-p3 0.6353 0.0000 0.1137);fill-opacity:1;"/>
</g>
<defs>
<filter id="filter0_dd_1164_123206" x="0.375" y="0.0527344" width="71.25" height="71.25" filterUnits="userSpaceOnUse" color-interpolation-filters="sRGB">
<feFlood flood-opacity="0" result="BackgroundImageFix"/>
<feColorMatrix in="SourceAlpha" type="matrix" values="0 0 0 0 0 0 0 0 0 0 0 0 0 0 0 0 0 0 127 0" result="hardAlpha"/>
<feOffset dy="1.875"/>
<feGaussianBlur stdDeviation="1.875"/>
<feColorMatrix type="matrix" values="0 0 0 0 0 0 0 0 0 0 0 0 0 0 0 0 0 0 0.06 0"/>
<feBlend mode="normal" in2="BackgroundImageFix" result="effect1_dropShadow_1164_123206"/>
<feColorMatrix in="SourceAlpha" type="matrix" values="0 0 0 0 0 0 0 0 0 0 0 0 0 0 0 0 0 0 127 0" result="hardAlpha"/>
<feOffset dy="1.875"/>
<feGaussianBlur stdDeviation="2.8125"/>
<feColorMatrix type="matrix" values="0 0 0 0 0 0 0 0 0 0 0 0 0 0 0 0 0 0 0.1 0"/>
<feBlend mode="normal" in2="effect1_dropShadow_1164_123206" result="effect2_dropShadow_1164_123206"/>
<feBlend mode="normal" in="SourceGraphic" in2="effect2_dropShadow_1164_123206" result="shape"/>
</filter>
<clipPath id="clip0_1164_123206">
<rect width="60" height="60" fill="white" style="fill:white;fill-opacity:1;" transform="translate(6 3.80273)"/>
</clipPath>
</defs>
</svg>
