<svg width="46" height="47" viewBox="0 0 46 47" fill="none" xmlns="http://www.w3.org/2000/svg">
<g filter="url(#filter0_dd_937_82113)">
<path d="M23 42.3008C34.0457 42.3008 43 33.3465 43 22.3008C43 11.2551 34.0457 2.30078 23 2.30078C11.9543 2.30078 3 11.2551 3 22.3008C3 33.3465 11.9543 42.3008 23 42.3008Z" fill="#F0F0F0" style="fill:#F0F0F0;fill:color(display-p3 0.9412 0.9412 0.9412);fill-opacity:1;"/>
<path d="M3 22.3009C3 11.2552 11.9544 2.30078 23 2.30078C34.0456 2.30078 43 11.2552 43 22.3009" fill="#D80027" style="fill:#D80027;fill:color(display-p3 0.8471 0.0000 0.1529);fill-opacity:1;"/>
<path d="M15.1713 12.7363C15.1713 9.82238 17.2191 7.38816 19.9538 6.7909C19.5335 6.69918 19.0975 6.64941 18.6495 6.64941C15.2877 6.64941 12.5625 9.37457 12.5625 12.7364C12.5625 16.0982 15.2877 18.8233 18.6495 18.8233C19.0973 18.8233 19.5334 18.7736 19.9538 18.6818C17.2191 18.0845 15.1713 15.6503 15.1713 12.7363V12.7363Z" fill="#F0F0F0" style="fill:#F0F0F0;fill:color(display-p3 0.9412 0.9412 0.9412);fill-opacity:1;"/>
<path d="M22.9927 7.08398L23.4244 8.4125H24.8213L23.6911 9.23367L24.1228 10.5622L22.9927 9.74117L21.8625 10.5622L22.2942 9.23367L21.1641 8.4125H22.5609L22.9927 7.08398Z" fill="#F0F0F0" style="fill:#F0F0F0;fill:color(display-p3 0.9412 0.9412 0.9412);fill-opacity:1;"/>
<path d="M19.61 9.69238L20.0416 11.021H21.4386L20.3084 11.8421L20.7402 13.1706L19.61 12.3496L18.4797 13.1706L18.9115 11.8421L17.7812 11.021H19.1782L19.61 9.69238Z" fill="#F0F0F0" style="fill:#F0F0F0;fill:color(display-p3 0.9412 0.9412 0.9412);fill-opacity:1;"/>
<path d="M26.3833 9.69238L26.8151 11.021H28.212L27.0817 11.8421L27.5135 13.1706L26.3833 12.3496L25.2531 13.1706L25.6848 11.8421L24.5547 11.021H25.9516L26.3833 9.69238Z" fill="#F0F0F0" style="fill:#F0F0F0;fill:color(display-p3 0.9412 0.9412 0.9412);fill-opacity:1;"/>
<path d="M25.0864 13.6064L25.5181 14.935H26.915L25.7848 15.7561L26.2166 17.0846L25.0864 16.2636L23.9563 17.0846L24.388 15.7561L23.2578 14.935H24.6546L25.0864 13.6064Z" fill="#F0F0F0" style="fill:#F0F0F0;fill:color(display-p3 0.9412 0.9412 0.9412);fill-opacity:1;"/>
<path d="M20.9146 13.6064L21.3463 14.935H22.7433L21.613 15.7561L22.0448 17.0846L20.9146 16.2636L19.7844 17.0846L20.2161 15.7561L19.0859 14.935H20.4829L20.9146 13.6064Z" fill="#F0F0F0" style="fill:#F0F0F0;fill:color(display-p3 0.9412 0.9412 0.9412);fill-opacity:1;"/>
</g>
<defs>
<filter id="filter0_dd_937_82113" x="0" y="0.300781" width="46" height="46" filterUnits="userSpaceOnUse" color-interpolation-filters="sRGB">
<feFlood flood-opacity="0" result="BackgroundImageFix"/>
<feColorMatrix in="SourceAlpha" type="matrix" values="0 0 0 0 0 0 0 0 0 0 0 0 0 0 0 0 0 0 127 0" result="hardAlpha"/>
<feOffset dy="1"/>
<feGaussianBlur stdDeviation="1"/>
<feColorMatrix type="matrix" values="0 0 0 0 0 0 0 0 0 0 0 0 0 0 0 0 0 0 0.06 0"/>
<feBlend mode="normal" in2="BackgroundImageFix" result="effect1_dropShadow_937_82113"/>
<feColorMatrix in="SourceAlpha" type="matrix" values="0 0 0 0 0 0 0 0 0 0 0 0 0 0 0 0 0 0 127 0" result="hardAlpha"/>
<feOffset dy="1"/>
<feGaussianBlur stdDeviation="1.5"/>
<feColorMatrix type="matrix" values="0 0 0 0 0 0 0 0 0 0 0 0 0 0 0 0 0 0 0.1 0"/>
<feBlend mode="normal" in2="effect1_dropShadow_937_82113" result="effect2_dropShadow_937_82113"/>
<feBlend mode="normal" in="SourceGraphic" in2="effect2_dropShadow_937_82113" result="shape"/>
</filter>
</defs>
</svg>
