<svg width="159" height="56" viewBox="0 0 159 56" fill="none" xmlns="http://www.w3.org/2000/svg">
<g clip-path="url(#clip0_1141_100910)">
<path d="M27.924 20.709C24.1005 20.709 21.2365 21.9119 19.4036 24.2747C17.7066 21.9047 15.0646 20.709 11.5562 20.709C8.4989 20.709 5.98575 21.5539 4.06687 23.2293V21.382H0V46.2343H4.06687V32.3583C4.06687 30.1387 4.64683 28.2699 5.77811 26.8308C7.02395 25.2413 8.79962 24.4393 11.055 24.4393C15.0002 24.4393 16.8331 26.2651 16.8331 30.1816V46.2343H20.9V30.826C20.9 28.857 21.5372 27.289 22.7974 26.1577C24.0647 25.0193 25.8189 24.4393 28.0242 24.4393C31.8977 24.4393 33.7737 26.3153 33.7737 30.1816V46.2343H37.7475V29.7019C37.7475 23.7377 34.4395 20.709 27.924 20.709Z" fill="white" style="fill:white;fill-opacity:1;"/>
<path d="M94.9966 22.8778C93.0276 21.4458 90.4715 20.7227 87.3998 20.7227C83.9988 20.7227 81.2494 21.6177 79.216 23.3933V21.3885H75.1562V46.2552H79.216V32.3791C79.216 30.0092 79.9463 28.076 81.3926 26.6296C82.8389 25.1833 84.8723 24.453 87.4428 24.453C89.6051 24.453 91.2519 24.9399 92.4906 25.9351C93.6863 26.9017 94.2949 28.3409 94.2949 30.1953V46.248H98.3546V29.7084C98.3546 26.7872 97.2233 24.4888 94.9894 22.8707L94.9966 22.8778Z" fill="white" style="fill:white;fill-opacity:1;"/>
<path d="M0 0.201172H2.20528L5.79243 5.78596L9.38674 0.201172H11.592V12.0152H9.51562V3.54489L5.79243 9.11536H5.72799L2.0406 3.58069V12.0223H0V0.201172Z" fill="white" style="fill:white;fill-opacity:1;"/>
<path d="M15.7344 0.201172H24.4839V2.05561H17.8108V5.12724H23.7249V6.98168H17.8108V10.1536H24.5698V12.008H15.7344V0.201172Z" fill="white" style="fill:white;fill-opacity:1;"/>
<path d="M28.7181 0.201172H33.9807C35.4628 0.201172 36.6299 0.637931 37.3817 1.38257C38.0046 2.02697 38.3626 2.90049 38.3626 3.93152V3.96732C38.3626 5.90768 37.1955 7.07476 35.563 7.54732L38.7492 12.0223H36.2862L33.3864 7.90532H30.7873V12.0223H28.7109V0.201172H28.7181ZM33.8303 6.05804C35.3124 6.05804 36.2576 5.2776 36.2576 4.08188V4.04608C36.2576 2.77877 35.3482 2.09141 33.8088 2.09141H30.7945V6.05804H33.8303Z" fill="white" style="fill:white;fill-opacity:1;"/>
<path d="M41.515 6.14522V6.10942C41.515 2.75139 44.0281 0.00195312 47.601 0.00195312C49.7776 0.00195312 51.0879 0.760912 52.2192 1.84207L50.8874 3.38147C49.9423 2.50079 48.9327 1.91367 47.5795 1.91367C45.3384 1.91367 43.6844 3.76811 43.6844 6.08078V6.11658C43.6844 8.42926 45.3169 10.298 47.5795 10.298C49.033 10.298 49.9566 9.72522 50.9662 8.7801L52.2979 10.1333C51.0664 11.415 49.7203 12.2241 47.5079 12.2241C44.0711 12.2241 41.5078 9.53906 41.5078 6.14522H41.515Z" fill="white" style="fill:white;fill-opacity:1;"/>
<path d="M55.5625 0.201172H57.6389V5.11292H63.2666V0.201172H65.343V12.0152H63.2666V7.03896H57.6389V12.0152H55.5625V0.201172Z" fill="white" style="fill:white;fill-opacity:1;"/>
<path d="M73.1363 0.123047H75.0552L80.2462 12.0229H78.0552L76.8595 9.17327H71.2819L70.0718 12.0229H67.9453L73.1363 0.123047ZM76.1005 7.32599L74.0599 2.6004L72.0337 7.32599H76.0934H76.1005Z" fill="white" style="fill:white;fill-opacity:1;"/>
<path d="M83.1712 0.201172H85.0901L91.4124 8.37072V0.201172H93.453V12.0152H91.7131L85.2047 3.60933V12.0152H83.1641V0.201172H83.1712Z" fill="white" style="fill:white;fill-opacity:1;"/>
<path d="M100.424 2.12721H96.6797V0.201172H106.253V2.12005H102.508V12.008H100.417V2.12721H100.424Z" fill="white" style="fill:white;fill-opacity:1;"/>
<path d="M109.57 0.201172H114.832C116.314 0.201172 117.474 0.637931 118.233 1.38257C118.856 2.02697 119.207 2.90049 119.207 3.93152V3.96732C119.207 5.90768 118.047 7.07476 116.407 7.54732L119.594 12.0223H117.131L114.231 7.90532H111.639V12.0223H109.562V0.201172H109.57ZM114.675 6.05804C116.157 6.05804 117.102 5.2776 117.102 4.08188V4.04608C117.102 2.77877 116.193 2.09141 114.653 2.09141H111.639V6.05804H114.675Z" fill="white" style="fill:white;fill-opacity:1;"/>
<path d="M126.581 0.123047H128.5L133.691 12.0229H131.5L130.304 9.17327H124.727L123.509 12.0229H121.383L126.581 0.123047ZM129.545 7.32599L127.505 2.6004L125.485 7.32599H129.545Z" fill="white" style="fill:white;fill-opacity:1;"/>
<path d="M136.312 0.201172H140.709C144.418 0.201172 146.981 2.75013 146.981 6.07236V6.10816C146.981 9.4304 144.418 12.0152 140.709 12.0152H136.312V0.201172ZM138.389 2.09141V10.1249H140.716C143.193 10.1249 144.811 8.45664 144.811 6.14396V6.10816C144.811 3.79549 143.193 2.09141 140.716 2.09141H138.389Z" fill="white" style="fill:white;fill-opacity:1;"/>
<path d="M150 0.201172H158.75V2.05561H152.076V5.12724H157.991V6.98168H152.076V10.1536H158.835V12.008H150V0.201172Z" fill="white" style="fill:white;fill-opacity:1;"/>
<path d="M56.9886 20.7227H55.929C48.7403 20.7227 42.8906 26.5724 42.8906 33.761C42.8906 40.9496 48.7403 46.7993 55.929 46.7993H56.9886C64.1773 46.7993 70.027 40.9496 70.027 33.761C70.027 26.5724 64.1773 20.7227 56.9886 20.7227ZM65.9601 33.761C65.9601 38.7085 61.9362 42.7325 56.9886 42.7325H55.929C50.9814 42.7325 46.9575 38.7085 46.9575 33.761C46.9575 28.8134 50.9814 24.7895 55.929 24.7895H56.9886C61.9362 24.7895 65.9601 28.8134 65.9601 33.761Z" fill="white" style="fill:white;fill-opacity:1;"/>
<path d="M158.827 43.7845V21.3809H154.767V31.9275C154.767 33.2736 154.767 36.424 153.514 38.7796C152.72 40.2689 151.094 42.2522 146.14 42.2522C143.626 42.2522 141.858 41.6078 140.877 40.3405C139.903 39.0732 139.824 37.4335 139.824 36.961V21.3809H135.765V36.961C135.765 38.5219 136.266 46.3119 146.14 46.3119C150.149 46.3119 152.884 45.2308 154.76 43.6413V43.7845H154.753V45.8179C154.753 49.1258 151.023 51.9254 146.605 51.9254C142.187 51.9254 138.457 49.1258 138.457 45.8179H134.383C134.383 51.4385 139.853 55.9994 146.605 55.9994C153.357 55.9994 158.827 51.4385 158.827 45.8179V43.7845Z" fill="white" style="fill:white;fill-opacity:1;"/>
<path d="M125.23 38.4716C123.597 41.1136 120.726 42.7318 117.597 42.7318H116.538C112.285 42.7318 108.719 39.7604 107.795 35.7866H130.629V33.7532C130.629 26.5646 124.779 20.7148 117.59 20.7148H116.531C109.342 20.7148 103.492 26.5646 103.492 33.7532C103.492 40.9418 109.342 46.7915 116.531 46.7915H117.59C122.975 46.7915 127.808 43.4621 129.741 38.4716H125.216H125.23ZM116.538 24.7889H117.597C121.843 24.7889 125.409 27.7603 126.34 31.7269H107.803C108.726 27.7531 112.292 24.7889 116.545 24.7889H116.538Z" fill="white" style="fill:white;fill-opacity:1;"/>
</g>
<defs>
<clipPath id="clip0_1141_100910">
<rect width="158.83" height="55.9983" fill="white" style="fill:white;fill-opacity:1;"/>
</clipPath>
</defs>
</svg>
