<svg width="74" height="26" viewBox="0 0 74 26" fill="none" xmlns="http://www.w3.org/2000/svg">
<g id="Group">
<path id="Vector" d="M13.2153 9.61719C11.4401 9.61719 10.1103 10.1757 9.25923 11.2728C8.47134 10.1724 7.24462 9.61719 5.61565 9.61719C4.19611 9.61719 3.02923 10.0095 2.13828 10.7874V9.92968H0.25V21.4688H2.13828V15.026C2.13828 13.9955 2.40756 13.1278 2.93282 12.4596C3.51128 11.7216 4.33574 11.3492 5.38294 11.3492C7.2147 11.3492 8.06576 12.197 8.06576 14.0154V21.4688H9.95404V14.3146C9.95404 13.4004 10.2499 12.6723 10.835 12.1471C11.4234 11.6185 12.2379 11.3492 13.2619 11.3492C15.0604 11.3492 15.9314 12.2202 15.9314 14.0154V21.4688H17.7765V13.7927C17.7765 11.0234 16.2406 9.61719 13.2153 9.61719Z" fill="white" style="fill:white;fill-opacity:1;"/>
<path id="Vector_2" d="M44.3605 10.6178C43.4462 9.95296 42.2594 9.61719 40.8332 9.61719C39.2541 9.61719 37.9775 10.0327 37.0334 10.8572V9.92636H35.1484V21.4721H37.0334V15.0294C37.0334 13.929 37.3725 13.0314 38.044 12.3598C38.7156 11.6883 39.6597 11.3492 40.8532 11.3492C41.8572 11.3492 42.6218 11.5753 43.1969 12.0374C43.7521 12.4862 44.0347 13.1544 44.0347 14.0154V21.4688H45.9196V13.7894C45.9196 12.433 45.3944 11.3658 44.3571 10.6145L44.3605 10.6178Z" fill="white" style="fill:white;fill-opacity:1;"/>
<g id="Group_2">
<path id="Vector_3" d="M0.25 0.09375H1.27393L2.93947 2.68681L4.60834 0.09375H5.63227V5.57907H4.66818V1.64294L2.93947 4.22935H2.90955L1.19747 1.65956V5.57907H0.25V0.09375Z" fill="white" style="fill:white;fill-opacity:1;"/>
<path id="Vector_4" d="M7.55469 0.09375H11.6172V0.95478H8.51878V2.38096H11.2648V3.24199H8.51878V4.71472H11.657V5.57575H7.55469V0.09375Z" fill="white" style="fill:white;fill-opacity:1;"/>
<path id="Vector_5" d="M13.5814 0.09375H16.0249C16.7131 0.09375 17.255 0.296541 17.604 0.642282C17.8932 0.941482 18.0595 1.34706 18.0595 1.82578V1.8424C18.0595 2.74333 17.5176 3.28521 16.7596 3.50462L18.239 5.5824H17.0954L15.749 3.67085H14.5422V5.5824H13.5781V0.09375H13.5814ZM15.9518 2.81314C16.6399 2.81314 17.0788 2.45078 17.0788 1.8956V1.87897C17.0788 1.29055 16.6566 0.971402 15.9418 0.971402H14.5422V2.81314H15.9518Z" fill="white" style="fill:white;fill-opacity:1;"/>
<path id="Vector_6" d="M19.5268 2.85237V2.83575C19.5268 1.27658 20.6936 0 22.3525 0C23.3632 0 23.9715 0.35239 24.4968 0.854381L23.8785 1.56913C23.4396 1.16023 22.9709 0.887625 22.3426 0.887625C21.302 0.887625 20.5341 1.74865 20.5341 2.82245V2.83907C20.5341 3.91286 21.292 4.78054 22.3426 4.78054C23.0174 4.78054 23.4463 4.51459 23.915 4.07576L24.5334 4.70408C23.9616 5.29915 23.3366 5.67482 22.3093 5.67482C20.7136 5.67482 19.5234 4.42815 19.5234 2.85237H19.5268Z" fill="white" style="fill:white;fill-opacity:1;"/>
<path id="Vector_7" d="M26.0469 0.09375H27.011V2.37431H29.624V0.09375H30.5881V5.57907H29.624V3.26859H27.011V5.57907H26.0469V0.09375Z" fill="white" style="fill:white;fill-opacity:1;"/>
<path id="Vector_8" d="M34.2071 0.0546875H35.098L37.5083 5.5799H36.491L35.9358 4.25678H33.3461L32.7842 5.5799H31.7969L34.2071 0.0546875ZM35.5834 3.39907L34.6359 1.20494L33.6951 3.39907H35.5801H35.5834Z" fill="white" style="fill:white;fill-opacity:1;"/>
<path id="Vector_9" d="M38.8627 0.09375H39.7536L42.6891 3.88693V0.09375H43.6366V5.57907H42.8288L39.8068 1.67618V5.57907H38.8594V0.09375H38.8627Z" fill="white" style="fill:white;fill-opacity:1;"/>
<path id="Vector_10" d="M46.8793 0.992512H45.1406V0.101562H49.5854V0.992512H47.8467V5.58356H46.876V0.992512H46.8793Z" fill="white" style="fill:white;fill-opacity:1;"/>
<path id="Vector_11" d="M51.1205 0.09375H53.564C54.2521 0.09375 54.7907 0.296541 55.1431 0.642282C55.4323 0.941482 55.5952 1.34706 55.5952 1.82578V1.8424C55.5952 2.74333 55.0566 3.28521 54.2954 3.50462L55.7747 5.5824H54.6311L53.2847 3.67085H52.0813V5.5824H51.1172V0.09375H51.1205ZM53.4908 2.81314C54.179 2.81314 54.6178 2.45078 54.6178 1.8956V1.87897C54.6178 1.29055 54.1956 0.971402 53.4809 0.971402H52.0813V2.81314H53.4908Z" fill="white" style="fill:white;fill-opacity:1;"/>
<path id="Vector_12" d="M59.0229 0.0546875H59.9139L62.3241 5.5799H61.3068L60.7516 4.25678H58.1619L57.5967 5.5799H56.6094L59.0196 0.0546875H59.0229ZM60.3992 3.39907L59.4518 1.20494L58.5143 3.39907H60.3992Z" fill="white" style="fill:white;fill-opacity:1;"/>
<path id="Vector_13" d="M63.5391 0.09375H65.5803C67.3023 0.09375 68.4925 1.27725 68.4925 2.81979V2.83641C68.4925 4.37895 67.3023 5.57907 65.5803 5.57907H63.5391V0.09375ZM64.5031 0.971402V4.70142H65.5836C66.7338 4.70142 67.4852 3.92683 67.4852 2.85303V2.83641C67.4852 1.76262 66.7338 0.971402 65.5836 0.971402H64.5031Z" fill="white" style="fill:white;fill-opacity:1;"/>
<path id="Vector_14" d="M69.8984 0.09375H73.9609V0.95478H70.8625V2.38096H73.6085V3.24199H70.8625V4.71472H74.0008V5.57575H69.8984V0.09375Z" fill="white" style="fill:white;fill-opacity:1;"/>
</g>
<path id="Vector_15" d="M26.7099 9.625H26.2179C22.8801 9.625 20.1641 12.3411 20.1641 15.6788C20.1641 19.0165 22.8801 21.7326 26.2179 21.7326H26.7099C30.0476 21.7326 32.7637 19.0165 32.7637 15.6788C32.7637 12.3411 30.0476 9.625 26.7099 9.625ZM30.8754 15.6788C30.8754 17.976 29.0071 19.8443 26.7099 19.8443H26.2179C23.9207 19.8443 22.0523 17.976 22.0523 15.6788C22.0523 13.3816 23.9207 11.5133 26.2179 11.5133H26.7099C29.0071 11.5133 30.8754 13.3816 30.8754 15.6788Z" fill="white" style="fill:white;fill-opacity:1;"/>
<path id="Vector_16" d="M73.9903 20.3319V9.92969H72.1053V14.8266C72.1053 15.4516 72.1053 16.9143 71.5235 18.0081C71.1545 18.6996 70.3999 19.6204 68.0994 19.6204C66.9325 19.6204 66.1113 19.3212 65.6559 18.7328C65.2038 18.1444 65.1672 17.3831 65.1672 17.1637V9.92969H63.2822V17.1637C63.2822 17.8884 63.515 21.5054 68.0994 21.5054C69.961 21.5054 71.231 21.0034 72.102 20.2654V20.3319H72.0987V21.276C72.0987 22.8119 70.3666 24.1117 68.3154 24.1117C66.2643 24.1117 64.5322 22.8119 64.5322 21.276H62.6406C62.6406 23.8857 65.1805 26.0033 68.3154 26.0033C71.4504 26.0033 73.9903 23.8857 73.9903 21.276V20.3319Z" fill="white" style="fill:white;fill-opacity:1;"/>
<path id="Vector_17" d="M58.3977 17.8618C57.6397 19.0885 56.3066 19.8398 54.8538 19.8398H54.3618C52.3871 19.8398 50.7315 18.4602 50.3027 16.6151H60.9043V15.671C60.9043 12.3333 58.1882 9.61719 54.8505 9.61719H54.3585C51.0208 9.61719 48.3047 12.3333 48.3047 15.671C48.3047 19.0087 51.0208 21.7248 54.3585 21.7248H54.8505C57.3505 21.7248 59.5945 20.1789 60.4921 17.8618H58.391H58.3977ZM54.3618 11.5088H54.8538C56.8252 11.5088 58.4808 12.8884 58.913 14.7302H50.306C50.7349 12.8851 52.3904 11.5088 54.3651 11.5088H54.3618Z" fill="white" style="fill:white;fill-opacity:1;"/>
</g>
</svg>
