<svg width="297" height="79" viewBox="0 0 297 79" fill="none" xmlns="http://www.w3.org/2000/svg">
<g clip-path="url(#clip0_720_58118)">
<path d="M297.129 0.0078125H0.476562V78.8405H297.129V0.0078125Z" fill="white" style="fill:white;fill-opacity:1;"/>
<path d="M40.3444 40.3425L34.6131 29.9062H30.3828V48.9336H34.6724V37.6608L40.3503 47.9962L45.9927 37.6608V48.9336H50.3119V29.9062H46.052L40.3444 40.3425Z" fill="#FE0000" style="fill:#FE0000;fill:color(display-p3 0.9961 0.0000 0.0000);fill-opacity:1;"/>
<path d="M54.2969 48.9336H69.0168V45.0237H58.6161V41.185H68.0319V37.2751H58.6161V33.8161H69.0168V29.9062H54.2969V48.9336Z" fill="#FE0000" style="fill:#FE0000;fill:color(display-p3 0.9961 0.0000 0.0000);fill-opacity:1;"/>
<path d="M87.9772 36.3792C87.9772 32.6236 84.9454 29.9062 80.7686 29.9062H72.1953V48.9336H76.4849V42.8522H79.2497L83.4918 48.8743L83.5334 48.9336H88.4637L83.8004 42.3123C85.0281 41.882 86.0906 41.0788 86.8395 40.0151C87.5884 38.9513 87.9861 37.6801 87.9772 36.3792ZM76.4849 33.8695H80.3295C82.2578 33.8695 83.5512 34.8782 83.5512 36.3792C83.5512 37.8803 82.2578 38.883 80.3295 38.883H76.4849V33.8695Z" fill="#FE0000" style="fill:#FE0000;fill:color(display-p3 0.9961 0.0000 0.0000);fill-opacity:1;"/>
<path d="M104.737 43.2776C104.215 43.9043 103.564 44.4118 102.829 44.7659C102.095 45.12 101.292 45.3125 100.477 45.3304C99.0072 45.1905 97.6426 44.5078 96.6495 43.4156C95.6563 42.3235 95.106 40.9003 95.106 39.4241C95.106 37.9478 95.6563 36.5246 96.6495 35.4325C97.6426 34.3403 99.0072 33.6576 100.477 33.5177C101.292 33.5356 102.095 33.7281 102.829 34.0822C103.564 34.4363 104.215 34.9438 104.737 35.5705L104.832 35.6773L107.964 32.865L107.863 32.7642C106.913 31.7595 105.768 30.9589 104.498 30.4111C103.228 29.8634 101.86 29.58 100.477 29.5781C95.0006 29.5781 90.3906 34.0813 90.3906 39.4092C90.3906 44.7371 95.0184 49.27 100.477 49.27C101.859 49.2627 103.225 48.9768 104.495 48.4293C105.764 47.8819 106.91 47.0842 107.863 46.0839L107.964 45.9831L104.832 43.1708L104.737 43.2776Z" fill="#FE0000" style="fill:#FE0000;fill:color(display-p3 0.9961 0.0000 0.0000);fill-opacity:1;"/>
<path d="M123.07 37.2751H114.811V29.9062H110.516V48.9336H114.811V41.185H123.07V48.9336H127.365V29.9062H123.07V37.2751Z" fill="#FE0000" style="fill:#FE0000;fill:color(display-p3 0.9961 0.0000 0.0000);fill-opacity:1;"/>
<path d="M142.088 29.9062H137.395L129.641 48.9336H134.446L135.633 45.9671H143.803L144.989 48.9336H149.825L142.112 29.9893L142.088 29.9062ZM142.308 42.2945H137.152L139.733 35.958L142.308 42.2945Z" fill="#FE0000" style="fill:#FE0000;fill:color(display-p3 0.9961 0.0000 0.0000);fill-opacity:1;"/>
<path d="M165.328 41.7427L156.547 29.9596L156.506 29.9062H152.281V48.9336H156.577V37.0971L165.358 48.8802L165.399 48.9336H169.647V29.9062H165.328V41.7427Z" fill="#FE0000" style="fill:#FE0000;fill:color(display-p3 0.9961 0.0000 0.0000);fill-opacity:1;"/>
<path d="M172.672 33.8161H178.51V48.9336H182.829V33.8161H188.673V29.9062H172.672V33.8161Z" fill="#FE0000" style="fill:#FE0000;fill:color(display-p3 0.9961 0.0000 0.0000);fill-opacity:1;"/>
<path d="M207.293 36.3792C207.293 32.6236 204.262 29.9062 200.079 29.9062H191.523V48.9336H195.819V42.8522H198.578L202.796 48.8743L202.838 48.9336H207.762L203.099 42.3123C204.33 41.8858 205.397 41.0841 206.15 40.0199C206.902 38.9557 207.302 37.6825 207.293 36.3792ZM195.801 33.8695H199.646C201.568 33.8695 202.861 34.8782 202.861 36.3792C202.861 37.8803 201.568 38.883 199.646 38.883H195.801V33.8695Z" fill="#FE0000" style="fill:#FE0000;fill:color(display-p3 0.9961 0.0000 0.0000);fill-opacity:1;"/>
<path d="M221.291 29.9062H216.598L208.844 48.9336H213.65L214.836 45.9671H223L224.187 48.9336H229.022L221.309 29.9893L221.291 29.9062ZM221.511 42.2945H216.355L218.936 35.958L221.511 42.2945Z" fill="#FE0000" style="fill:#FE0000;fill:color(display-p3 0.9961 0.0000 0.0000);fill-opacity:1;"/>
<path d="M238.353 29.9062H231.5V48.9336H238.353C244.784 48.9336 249.275 45.0178 249.275 39.4051C249.275 33.7924 244.784 29.9062 238.353 29.9062ZM238.875 45H235.796V33.8221H238.875C242.393 33.8221 244.849 36.1122 244.849 39.3873C244.849 42.6624 242.393 45 238.875 45Z" fill="#FE0000" style="fill:#FE0000;fill:color(display-p3 0.9961 0.0000 0.0000);fill-opacity:1;"/>
<path d="M267.236 33.8161V29.9062H252.516V48.9336H267.236V45.0237H256.835V41.185H266.257V37.2751H256.835V33.8161H267.236Z" fill="#FE0000" style="fill:#FE0000;fill:color(display-p3 0.9961 0.0000 0.0000);fill-opacity:1;"/>
<path d="M271.622 30.3275H270.305V29.9062H273.402V30.3275H272.091V33.8221H271.622V30.3275Z" fill="#FE0000" style="fill:#FE0000;fill:color(display-p3 0.9961 0.0000 0.0000);fill-opacity:1;"/>
<path d="M274.203 29.9062H274.648L276.096 32.6355L277.555 29.9062H278V33.8221H277.555V30.8555L276.102 33.5788L274.648 30.8555V33.8221H274.203V29.9062Z" fill="#FE0000" style="fill:#FE0000;fill:color(display-p3 0.9961 0.0000 0.0000);fill-opacity:1;"/>
</g>
<defs>
<clipPath id="clip0_720_58118">
<rect width="296.517" height="78.8609" fill="white" style="fill:white;fill-opacity:1;" transform="translate(0.484375 0.0078125)"/>
</clipPath>
</defs>
</svg>
